M48
; DRILL file {KiCad 5.1.10-88a1d61d58~90~ubuntu20.04.1} date Wed Sep 22 19:35:33 2021
; FORMAT={-:-/ absolute / inch / decimal}
; #@! TF.CreationDate,2021-09-22T19:35:33-04:00
; #@! TF.GenerationSoftware,Kicad,Pcbnew,5.1.10-88a1d61d58~90~ubuntu20.04.1
; #@! TF.FileFunction,Plated,1,2,PTH
FMAT,2
INCH
T1C0.0394
T2C0.0689
%
G90
G05
T1
X-7.5343Y-6.639
X-7.5343Y-6.739
X-7.5343Y-6.839
X-7.5343Y-6.939
X-7.5343Y-7.039
X-7.5343Y-7.139
X-6.9343Y-1.439
X-6.8343Y-1.439
X-6.7343Y-1.439
X-6.6343Y-1.439
X-6.5343Y-1.439
X-6.4343Y-1.439
X-6.3343Y-1.439
X-6.2343Y-1.439
X-2.5343Y-7.239
X-2.4343Y-7.239
X-2.3343Y-7.239
X-2.2343Y-7.239
X-1.9843Y-7.239
X-1.8843Y-7.239
X-1.7843Y-7.239
X-1.1343Y-6.639
X-1.1343Y-6.739
X-1.1343Y-6.839
X-1.1343Y-6.939
X-1.1343Y-7.039
X-1.1343Y-7.139
X-1.1343Y-7.239
X-1.0343Y-6.639
X-1.0343Y-6.739
X-1.0343Y-6.839
X-1.0343Y-6.939
X-1.0343Y-7.039
X-1.0343Y-7.139
X-1.0343Y-7.239
T2
X-7.7668Y-5.8167
X-7.5699Y-2.864
X-7.5699Y-5.6199
X-7.2128Y-5.8167
X-7.016Y-2.864
X-7.016Y-5.6199
X-6.6617Y-5.8167
X-6.4648Y-2.864
X-6.4648Y-5.6199
X-6.1105Y-5.8167
X-5.9136Y-2.864
X-5.9136Y-5.6199
X-5.5593Y-5.8167
X-5.3624Y-2.864
X-5.3624Y-5.6199
X-5.0081Y-5.8167
X-4.8113Y-2.864
X-4.8113Y-5.6199
X-4.4569Y-5.8167
X-4.2601Y-2.864
X-4.2601Y-5.6199
X-3.9057Y-5.8167
X-3.7089Y-2.864
X-3.7089Y-5.6199
X-3.3546Y-5.8167
X-3.1577Y-2.864
X-3.1577Y-5.6199
X-2.8034Y-5.8167
X-2.6065Y-2.864
X-2.6065Y-5.6199
X-2.2522Y-5.8167
X-2.0554Y-2.864
X-2.0554Y-5.6199
X-1.701Y-5.8167
X-1.5042Y-2.864
X-1.5042Y-5.6199
X-1.1498Y-5.8167
X-0.953Y-2.864
X-0.953Y-5.6199
X-0.5987Y-5.8167
X-0.4018Y-2.864
X-0.4018Y-5.6199
T1
G00X-7.4646Y-7.7028
M15
G01X-7.4646Y-7.7697
M16
G05
G00X-7.2776Y-7.9685
M15
G01X-7.3445Y-7.9685
M16
G05
G00X-7.1594Y-7.4646
M15
G01X-7.2264Y-7.4646
M16
G05
G00X-7.0023Y-7.8795
M15
G01X-7.0496Y-7.9268
M16
G05
G00X-6.9606Y-7.5846
M15
G01X-6.9606Y-7.6516
M16
G05
G00X-5.8898Y-7.7028
M15
G01X-5.8898Y-7.7697
M16
G05
G00X-5.7028Y-7.9685
M15
G01X-5.7697Y-7.9685
M16
G05
G00X-5.5846Y-7.4646
M15
G01X-5.6516Y-7.4646
M16
G05
G00X-5.4275Y-7.8795
M15
G01X-5.4748Y-7.9268
M16
G05
G00X-5.3858Y-7.5846
M15
G01X-5.3858Y-7.6516
M16
G05
G00X-4.315Y-7.7028
M15
G01X-4.315Y-7.7697
M16
G05
G00X-4.128Y-7.9685
M15
G01X-4.1949Y-7.9685
M16
G05
G00X-4.0098Y-7.4646
M15
G01X-4.0768Y-7.4646
M16
G05
G00X-3.8527Y-7.8795
M15
G01X-3.9Y-7.9268
M16
G05
G00X-3.811Y-7.5846
M15
G01X-3.811Y-7.6516
M16
G05
G00X-2.7402Y-7.7028
M15
G01X-2.7402Y-7.7697
M16
G05
G00X-2.5531Y-7.9685
M15
G01X-2.6201Y-7.9685
M16
G05
G00X-2.435Y-7.4646
M15
G01X-2.502Y-7.4646
M16
G05
G00X-2.2779Y-7.8795
M15
G01X-2.3252Y-7.9268
M16
G05
G00X-2.2362Y-7.5846
M15
G01X-2.2362Y-7.6516
M16
G05
G00X-1.1654Y-7.7028
M15
G01X-1.1654Y-7.7697
M16
G05
G00X-0.9783Y-7.9685
M15
G01X-1.0453Y-7.9685
M16
G05
G00X-0.8602Y-7.4646
M15
G01X-0.9272Y-7.4646
M16
G05
G00X-0.7031Y-7.8795
M15
G01X-0.7504Y-7.9268
M16
G05
G00X-0.6614Y-7.5846
M15
G01X-0.6614Y-7.6516
M16
G05
T0
M30
