%TF.GenerationSoftware,KiCad,Pcbnew,5.1.10-88a1d61d58~90~ubuntu20.04.1*%
%TF.CreationDate,2021-09-22T19:35:29-04:00*%
%TF.ProjectId,ysFFB,79734646-422e-46b6-9963-61645f706362,rev?*%
%TF.SameCoordinates,Original*%
%TF.FileFunction,Soldermask,Bot*%
%TF.FilePolarity,Negative*%
%FSLAX46Y46*%
G04 Gerber Fmt 4.6, Leading zero omitted, Abs format (unit mm)*
G04 Created by KiCad (PCBNEW 5.1.10-88a1d61d58~90~ubuntu20.04.1) date 2021-09-22 19:35:29*
%MOMM*%
%LPD*%
G01*
G04 APERTURE LIST*
%TA.AperFunction,Profile*%
%ADD10C,0.100000*%
%TD*%
%ADD11C,2.500000*%
%ADD12R,2.500000X2.500000*%
%ADD13O,1.700000X1.700000*%
%ADD14R,1.700000X1.700000*%
%ADD15O,4.500001X2.500001*%
%ADD16O,2.500000X4.500000*%
%ADD17O,2.500000X4.500001*%
%ADD18C,0.100000*%
%ADD19O,4.500000X2.500000*%
%ADD20C,3.200000*%
G04 APERTURE END LIST*
D10*
X-5200000Y-32000000D02*
X-5200000Y-207000000D01*
X-201200000Y-32000000D02*
X-5200000Y-32000000D01*
X-5200000Y-207000000D02*
X-201200000Y-207000000D01*
X-201200000Y-207000000D02*
X-201200000Y-32000000D01*
D11*
%TO.C,RV6*%
X-66206000Y-72745000D03*
X-71206000Y-147745000D03*
D12*
X-66206000Y-142745000D03*
%TD*%
D13*
%TO.C,J16*%
X-45320000Y-183870000D03*
X-47860000Y-183870000D03*
D14*
X-50400000Y-183870000D03*
%TD*%
D13*
%TO.C,J15*%
X-56750000Y-183870000D03*
X-59290000Y-183870000D03*
X-61830000Y-183870000D03*
D14*
X-64370000Y-183870000D03*
%TD*%
D11*
%TO.C,RV2*%
X-80206000Y-72745000D03*
X-85206000Y-147745000D03*
D12*
X-80206000Y-142745000D03*
%TD*%
D15*
%TO.C,J10*%
X-25700000Y-202400000D03*
D16*
X-16800000Y-193500000D03*
D17*
X-29600000Y-196500000D03*
D18*
G36*
X-17752893Y-198265126D02*
G01*
X-15985126Y-200032893D01*
X-19167107Y-203214874D01*
X-20934874Y-201447107D01*
X-17752893Y-198265126D01*
G37*
D19*
X-22700000Y-189600000D03*
%TD*%
D13*
%TO.C,J7*%
X-176130000Y-36550000D03*
X-173590000Y-36550000D03*
X-171050000Y-36550000D03*
X-168510000Y-36550000D03*
X-165970000Y-36550000D03*
X-163430000Y-36550000D03*
X-160890000Y-36550000D03*
D14*
X-158350000Y-36550000D03*
%TD*%
D11*
%TO.C,RV9*%
X-10206000Y-72745000D03*
X-15206000Y-147745000D03*
D12*
X-10206000Y-142745000D03*
%TD*%
D11*
%TO.C,RV14*%
X-192276000Y-72745000D03*
X-197276000Y-147745000D03*
D12*
X-192276000Y-142745000D03*
%TD*%
D11*
%TO.C,RV13*%
X-178206000Y-72745000D03*
X-183206000Y-147745000D03*
D12*
X-178206000Y-142745000D03*
%TD*%
D20*
%TO.C,H8*%
X-8200000Y-191000000D03*
%TD*%
D11*
%TO.C,RV1*%
X-108206000Y-72745000D03*
X-113206000Y-147745000D03*
D12*
X-108206000Y-142745000D03*
%TD*%
D11*
%TO.C,RV7*%
X-94206000Y-72745000D03*
X-99206000Y-147745000D03*
D12*
X-94206000Y-142745000D03*
%TD*%
D13*
%TO.C,J9*%
X-191370000Y-181330000D03*
X-191370000Y-178790000D03*
X-191370000Y-176250000D03*
X-191370000Y-173710000D03*
X-191370000Y-171170000D03*
D14*
X-191370000Y-168630000D03*
%TD*%
D11*
%TO.C,RV8*%
X-122206000Y-72745000D03*
X-127206000Y-147745000D03*
D12*
X-122206000Y-142745000D03*
%TD*%
D15*
%TO.C,J12*%
X-145700000Y-202400000D03*
D16*
X-136800000Y-193500000D03*
D17*
X-149600000Y-196500000D03*
D18*
G36*
X-137752893Y-198265126D02*
G01*
X-135985126Y-200032893D01*
X-139167107Y-203214874D01*
X-140934874Y-201447107D01*
X-137752893Y-198265126D01*
G37*
D19*
X-142700000Y-189600000D03*
%TD*%
D11*
%TO.C,RV11*%
X-136206000Y-72745000D03*
X-141206000Y-147745000D03*
D12*
X-136206000Y-142745000D03*
%TD*%
D13*
%TO.C,J8*%
X-26270000Y-168630000D03*
X-28810000Y-168630000D03*
X-26270000Y-171170000D03*
X-28810000Y-171170000D03*
X-26270000Y-173710000D03*
X-28810000Y-173710000D03*
X-26270000Y-176250000D03*
X-28810000Y-176250000D03*
X-26270000Y-178790000D03*
X-28810000Y-178790000D03*
X-26270000Y-181330000D03*
X-28810000Y-181330000D03*
X-26270000Y-183870000D03*
D14*
X-28810000Y-183870000D03*
%TD*%
D20*
%TO.C,H7*%
X-198200000Y-191000000D03*
%TD*%
%TO.C,H5*%
X-198200000Y-35000000D03*
%TD*%
%TO.C,H6*%
X-8200000Y-35000000D03*
%TD*%
D11*
%TO.C,RV4*%
X-24206000Y-72745000D03*
X-29206000Y-147745000D03*
D12*
X-24206000Y-142745000D03*
%TD*%
D11*
%TO.C,RV12*%
X-150206000Y-72745000D03*
X-155206000Y-147745000D03*
D12*
X-150206000Y-142745000D03*
%TD*%
D11*
%TO.C,RV3*%
X-52206000Y-72745000D03*
X-57206000Y-147745000D03*
D12*
X-52206000Y-142745000D03*
%TD*%
D15*
%TO.C,J11*%
X-65700000Y-202400000D03*
D16*
X-56800000Y-193500000D03*
D17*
X-69600000Y-196500000D03*
D18*
G36*
X-57752893Y-198265126D02*
G01*
X-55985126Y-200032893D01*
X-59167107Y-203214874D01*
X-60934874Y-201447107D01*
X-57752893Y-198265126D01*
G37*
D19*
X-62700000Y-189600000D03*
%TD*%
D15*
%TO.C,J14*%
X-105700000Y-202400000D03*
D16*
X-96800000Y-193500000D03*
D17*
X-109600000Y-196500000D03*
D18*
G36*
X-97752893Y-198265126D02*
G01*
X-95985126Y-200032893D01*
X-99167107Y-203214874D01*
X-100934874Y-201447107D01*
X-97752893Y-198265126D01*
G37*
D19*
X-102700000Y-189600000D03*
%TD*%
D15*
%TO.C,J13*%
X-185700000Y-202400000D03*
D16*
X-176800000Y-193500000D03*
D17*
X-189600000Y-196500000D03*
D18*
G36*
X-177752893Y-198265126D02*
G01*
X-175985126Y-200032893D01*
X-179167107Y-203214874D01*
X-180934874Y-201447107D01*
X-177752893Y-198265126D01*
G37*
D19*
X-182700000Y-189600000D03*
%TD*%
D11*
%TO.C,RV10*%
X-164206000Y-72745000D03*
X-169206000Y-147745000D03*
D12*
X-164206000Y-142745000D03*
%TD*%
D11*
%TO.C,RV5*%
X-38206000Y-72745000D03*
X-43206000Y-147745000D03*
D12*
X-38206000Y-142745000D03*
%TD*%
M02*
