%TF.GenerationSoftware,KiCad,Pcbnew,5.1.10-88a1d61d58~90~ubuntu20.04.1*%
%TF.CreationDate,2021-10-24T07:22:01-04:00*%
%TF.ProjectId,ysFFB,79734646-422e-46b6-9963-61645f706362,rev?*%
%TF.SameCoordinates,Original*%
%TF.FileFunction,Legend,Top*%
%TF.FilePolarity,Positive*%
%FSLAX46Y46*%
G04 Gerber Fmt 4.6, Leading zero omitted, Abs format (unit mm)*
G04 Created by KiCad (PCBNEW 5.1.10-88a1d61d58~90~ubuntu20.04.1) date 2021-10-24 07:22:01*
%MOMM*%
%LPD*%
G01*
G04 APERTURE LIST*
%TA.AperFunction,Profile*%
%ADD10C,0.100000*%
%TD*%
%ADD11C,0.120000*%
%ADD12C,0.150000*%
G04 APERTURE END LIST*
D10*
X-5200000Y-32000000D02*
X-5200000Y-207000000D01*
X-201200000Y-32000000D02*
X-5200000Y-32000000D01*
X-5200000Y-207000000D02*
X-201200000Y-207000000D01*
X-201200000Y-207000000D02*
X-201200000Y-32000000D01*
D11*
%TO.C,J16*%
X-51730000Y-183870000D02*
X-51730000Y-182540000D01*
X-51730000Y-182540000D02*
X-50400000Y-182540000D01*
X-49130000Y-182540000D02*
X-43990000Y-182540000D01*
X-43990000Y-185200000D02*
X-43990000Y-182540000D01*
X-49130000Y-185200000D02*
X-43990000Y-185200000D01*
X-49130000Y-185200000D02*
X-49130000Y-182540000D01*
%TO.C,J15*%
X-65700000Y-183870000D02*
X-65700000Y-182540000D01*
X-65700000Y-182540000D02*
X-64370000Y-182540000D01*
X-63100000Y-182540000D02*
X-55420000Y-182540000D01*
X-55420000Y-185200000D02*
X-55420000Y-182540000D01*
X-63100000Y-185200000D02*
X-55420000Y-185200000D01*
X-63100000Y-185200000D02*
X-63100000Y-182540000D01*
%TO.C,J7*%
X-157020000Y-36550000D02*
X-157020000Y-37880000D01*
X-157020000Y-37880000D02*
X-158350000Y-37880000D01*
X-159620000Y-37880000D02*
X-177460000Y-37880000D01*
X-177460000Y-35220000D02*
X-177460000Y-37880000D01*
X-159620000Y-35220000D02*
X-177460000Y-35220000D01*
X-159620000Y-35220000D02*
X-159620000Y-37880000D01*
%TO.C,J9*%
X-191370000Y-167300000D02*
X-190040000Y-167300000D01*
X-190040000Y-167300000D02*
X-190040000Y-168630000D01*
X-190040000Y-169900000D02*
X-190040000Y-182660000D01*
X-192700000Y-182660000D02*
X-190040000Y-182660000D01*
X-192700000Y-169900000D02*
X-192700000Y-182660000D01*
X-192700000Y-169900000D02*
X-190040000Y-169900000D01*
%TO.C,J8*%
X-28810000Y-185200000D02*
X-30140000Y-185200000D01*
X-30140000Y-185200000D02*
X-30140000Y-183870000D01*
X-27540000Y-185200000D02*
X-27540000Y-182600000D01*
X-27540000Y-182600000D02*
X-30140000Y-182600000D01*
X-30140000Y-182600000D02*
X-30140000Y-167300000D01*
X-24940000Y-167300000D02*
X-30140000Y-167300000D01*
X-24940000Y-185200000D02*
X-24940000Y-167300000D01*
X-24940000Y-185200000D02*
X-27540000Y-185200000D01*
%TD*%
%TO.C,J16*%
D12*
X-53717619Y-184679523D02*
X-53003333Y-184679523D01*
X-52860476Y-184727142D01*
X-52765238Y-184822380D01*
X-52717619Y-184965238D01*
X-52717619Y-185060476D01*
X-52717619Y-183679523D02*
X-52717619Y-184250952D01*
X-52717619Y-183965238D02*
X-53717619Y-183965238D01*
X-53574761Y-184060476D01*
X-53479523Y-184155714D01*
X-53431904Y-184250952D01*
X-53717619Y-182822380D02*
X-53717619Y-183012857D01*
X-53670000Y-183108095D01*
X-53622380Y-183155714D01*
X-53479523Y-183250952D01*
X-53289047Y-183298571D01*
X-52908095Y-183298571D01*
X-52812857Y-183250952D01*
X-52765238Y-183203333D01*
X-52717619Y-183108095D01*
X-52717619Y-182917619D01*
X-52765238Y-182822380D01*
X-52812857Y-182774761D01*
X-52908095Y-182727142D01*
X-53146190Y-182727142D01*
X-53241428Y-182774761D01*
X-53289047Y-182822380D01*
X-53336666Y-182917619D01*
X-53336666Y-183108095D01*
X-53289047Y-183203333D01*
X-53241428Y-183250952D01*
X-53146190Y-183298571D01*
%TO.C,J15*%
X-67687619Y-184679523D02*
X-66973333Y-184679523D01*
X-66830476Y-184727142D01*
X-66735238Y-184822380D01*
X-66687619Y-184965238D01*
X-66687619Y-185060476D01*
X-66687619Y-183679523D02*
X-66687619Y-184250952D01*
X-66687619Y-183965238D02*
X-67687619Y-183965238D01*
X-67544761Y-184060476D01*
X-67449523Y-184155714D01*
X-67401904Y-184250952D01*
X-67687619Y-182774761D02*
X-67687619Y-183250952D01*
X-67211428Y-183298571D01*
X-67259047Y-183250952D01*
X-67306666Y-183155714D01*
X-67306666Y-182917619D01*
X-67259047Y-182822380D01*
X-67211428Y-182774761D01*
X-67116190Y-182727142D01*
X-66878095Y-182727142D01*
X-66782857Y-182774761D01*
X-66735238Y-182822380D01*
X-66687619Y-182917619D01*
X-66687619Y-183155714D01*
X-66735238Y-183250952D01*
X-66782857Y-183298571D01*
%TO.C,J7*%
X-156127619Y-36883333D02*
X-155413333Y-36883333D01*
X-155270476Y-36930952D01*
X-155175238Y-37026190D01*
X-155127619Y-37169047D01*
X-155127619Y-37264285D01*
X-156127619Y-36502380D02*
X-156127619Y-35835714D01*
X-155127619Y-36264285D01*
%TO.C,J9*%
X-191703333Y-165312380D02*
X-191703333Y-166026666D01*
X-191750952Y-166169523D01*
X-191846190Y-166264761D01*
X-191989047Y-166312380D01*
X-192084285Y-166312380D01*
X-191179523Y-166312380D02*
X-190989047Y-166312380D01*
X-190893809Y-166264761D01*
X-190846190Y-166217142D01*
X-190750952Y-166074285D01*
X-190703333Y-165883809D01*
X-190703333Y-165502857D01*
X-190750952Y-165407619D01*
X-190798571Y-165360000D01*
X-190893809Y-165312380D01*
X-191084285Y-165312380D01*
X-191179523Y-165360000D01*
X-191227142Y-165407619D01*
X-191274761Y-165502857D01*
X-191274761Y-165740952D01*
X-191227142Y-165836190D01*
X-191179523Y-165883809D01*
X-191084285Y-165931428D01*
X-190893809Y-165931428D01*
X-190798571Y-165883809D01*
X-190750952Y-165836190D01*
X-190703333Y-165740952D01*
%TO.C,J8*%
X-27873333Y-186092380D02*
X-27873333Y-186806666D01*
X-27920952Y-186949523D01*
X-28016190Y-187044761D01*
X-28159047Y-187092380D01*
X-28254285Y-187092380D01*
X-27254285Y-186520952D02*
X-27349523Y-186473333D01*
X-27397142Y-186425714D01*
X-27444761Y-186330476D01*
X-27444761Y-186282857D01*
X-27397142Y-186187619D01*
X-27349523Y-186140000D01*
X-27254285Y-186092380D01*
X-27063809Y-186092380D01*
X-26968571Y-186140000D01*
X-26920952Y-186187619D01*
X-26873333Y-186282857D01*
X-26873333Y-186330476D01*
X-26920952Y-186425714D01*
X-26968571Y-186473333D01*
X-27063809Y-186520952D01*
X-27254285Y-186520952D01*
X-27349523Y-186568571D01*
X-27397142Y-186616190D01*
X-27444761Y-186711428D01*
X-27444761Y-186901904D01*
X-27397142Y-186997142D01*
X-27349523Y-187044761D01*
X-27254285Y-187092380D01*
X-27063809Y-187092380D01*
X-26968571Y-187044761D01*
X-26920952Y-186997142D01*
X-26873333Y-186901904D01*
X-26873333Y-186711428D01*
X-26920952Y-186616190D01*
X-26968571Y-186568571D01*
X-27063809Y-186520952D01*
%TD*%
M02*
