M48
; DRILL file {KiCad 5.1.10-88a1d61d58~90~ubuntu20.04.1} date Sat Sep 18 21:57:50 2021
; FORMAT={-:-/ absolute / inch / decimal}
; #@! TF.CreationDate,2021-09-18T21:57:50-04:00
; #@! TF.GenerationSoftware,Kicad,Pcbnew,5.1.10-88a1d61d58~90~ubuntu20.04.1
; #@! TF.FileFunction,Plated,1,2,PTH
FMAT,2
INCH
T1C0.0315
T2C0.0394
T3C0.0400
T4C0.0433
%
G90
G05
T1
X1.7657Y-2.2921
X1.7657Y-2.489
X1.7657Y-3.289
X1.7657Y-3.4858
X1.7657Y-5.3921
X1.7657Y-5.589
X1.7657Y-6.389
X1.7657Y-6.5858
X1.8157Y-1.389
X1.8157Y-1.789
X1.8157Y-1.939
X1.8157Y-3.839
X1.8157Y-3.989
X1.8157Y-4.389
X1.8157Y-4.489
X1.8157Y-4.889
X1.8157Y-5.039
X1.8157Y-6.939
X1.8157Y-7.089
X1.8157Y-7.489
X1.9157Y-2.2921
X1.9157Y-2.489
X1.9157Y-2.939
X1.9157Y-3.0374
X1.9157Y-3.289
X1.9157Y-3.4858
X1.9157Y-5.3921
X1.9157Y-5.589
X1.9157Y-6.039
X1.9157Y-6.1374
X1.9157Y-6.389
X1.9157Y-6.5858
X2.0657Y-2.289
X2.0657Y-2.4858
X2.0657Y-2.739
X2.0657Y-3.039
X2.0657Y-3.289
X2.0657Y-3.4858
X2.0657Y-5.3921
X2.0657Y-5.589
X2.0657Y-5.839
X2.0657Y-6.139
X2.0657Y-6.389
X2.0657Y-6.5858
X2.1657Y-2.739
X2.1657Y-3.039
X2.1657Y-5.839
X2.1657Y-6.139
X2.2157Y-1.939
X2.2157Y-2.2921
X2.2157Y-2.489
X2.2157Y-3.289
X2.2157Y-3.4858
X2.2157Y-3.839
X2.2157Y-5.039
X2.2157Y-5.3921
X2.2157Y-5.589
X2.2157Y-6.389
X2.2157Y-6.5858
X2.2157Y-6.939
X2.2657Y-2.739
X2.2657Y-3.039
X2.2657Y-5.839
X2.2657Y-6.139
X2.3657Y-1.789
X2.3657Y-2.189
X2.3657Y-2.739
X2.3657Y-3.039
X2.3657Y-3.589
X2.3657Y-3.989
X2.3657Y-4.889
X2.3657Y-5.289
X2.3657Y-5.839
X2.3657Y-6.139
X2.3657Y-6.689
X2.3657Y-7.089
X2.4657Y-2.739
X2.4657Y-3.039
X2.4657Y-5.839
X2.4657Y-6.139
X2.5157Y-1.789
X2.5157Y-1.939
X2.5157Y-2.089
X2.5157Y-2.2921
X2.5157Y-2.489
X2.5157Y-3.289
X2.5157Y-3.4858
X2.5157Y-3.689
X2.5157Y-3.839
X2.5157Y-3.989
X2.5157Y-4.889
X2.5157Y-5.039
X2.5157Y-5.189
X2.5157Y-5.3921
X2.5157Y-5.589
X2.5157Y-6.389
X2.5157Y-6.5858
X2.5157Y-6.789
X2.5157Y-6.939
X2.5157Y-7.089
X2.5657Y-2.739
X2.5657Y-3.039
X2.5657Y-5.839
X2.5657Y-6.139
X2.6657Y-2.2921
X2.6657Y-2.489
X2.6657Y-2.739
X2.6657Y-3.039
X2.6657Y-3.289
X2.6657Y-3.4858
X2.6657Y-5.3921
X2.6657Y-5.589
X2.6657Y-5.839
X2.6657Y-6.139
X2.6657Y-6.389
X2.6657Y-6.5858
X2.8157Y-2.2921
X2.8157Y-2.489
X2.8157Y-2.739
X2.8157Y-2.8374
X2.8157Y-3.289
X2.8157Y-3.4858
X2.8157Y-5.3921
X2.8157Y-5.589
X2.8157Y-5.839
X2.8157Y-5.9374
X2.8157Y-6.389
X2.8157Y-6.5858
X2.9157Y-1.789
X2.9157Y-1.939
X2.9157Y-2.089
X2.9157Y-3.689
X2.9157Y-3.839
X2.9157Y-3.989
X2.9157Y-4.889
X2.9157Y-5.039
X2.9157Y-5.189
X2.9157Y-6.789
X2.9157Y-6.939
X2.9157Y-7.089
X2.9657Y-2.2921
X2.9657Y-2.489
X2.9657Y-3.289
X2.9657Y-3.4858
X2.9657Y-5.3921
X2.9657Y-5.589
X2.9657Y-6.389
X2.9657Y-6.5858
X3.3657Y-2.2921
X3.3657Y-2.489
X3.3657Y-3.289
X3.3657Y-3.4858
X3.3657Y-5.3921
X3.3657Y-5.589
X3.3657Y-6.389
X3.3657Y-6.5858
X3.4157Y-1.389
X3.4157Y-1.789
X3.4157Y-1.939
X3.4157Y-3.839
X3.4157Y-3.989
X3.4157Y-4.389
X3.4157Y-4.489
X3.4157Y-4.889
X3.4157Y-5.039
X3.4157Y-6.939
X3.4157Y-7.089
X3.4157Y-7.489
X3.5157Y-2.2921
X3.5157Y-2.489
X3.5157Y-2.9459
X3.5157Y-3.0443
X3.5157Y-3.289
X3.5157Y-3.4858
X3.5157Y-5.3921
X3.5157Y-5.589
X3.5157Y-6.039
X3.5157Y-6.1374
X3.5157Y-6.389
X3.5157Y-6.5858
X3.6657Y-2.2921
X3.6657Y-2.489
X3.6657Y-2.739
X3.6657Y-3.039
X3.6657Y-3.289
X3.6657Y-3.4858
X3.6657Y-5.3921
X3.6657Y-5.589
X3.6657Y-5.839
X3.6657Y-6.139
X3.6657Y-6.389
X3.6657Y-6.5858
X3.7657Y-2.739
X3.7657Y-3.039
X3.7657Y-5.839
X3.7657Y-6.139
X3.8157Y-1.939
X3.8157Y-2.2921
X3.8157Y-2.489
X3.8157Y-3.289
X3.8157Y-3.4858
X3.8157Y-3.839
X3.8157Y-5.039
X3.8157Y-5.3921
X3.8157Y-5.589
X3.8157Y-6.389
X3.8157Y-6.5858
X3.8157Y-6.939
X3.8657Y-2.739
X3.8657Y-3.039
X3.8657Y-5.839
X3.8657Y-6.139
X3.9657Y-1.789
X3.9657Y-2.189
X3.9657Y-2.739
X3.9657Y-3.039
X3.9657Y-3.589
X3.9657Y-3.989
X3.9657Y-4.889
X3.9657Y-5.289
X3.9657Y-5.839
X3.9657Y-6.139
X3.9657Y-6.689
X3.9657Y-7.089
X4.0657Y-2.739
X4.0657Y-3.039
X4.0657Y-5.839
X4.0657Y-6.139
X4.1157Y-1.789
X4.1157Y-1.939
X4.1157Y-2.089
X4.1157Y-2.2921
X4.1157Y-2.489
X4.1157Y-3.289
X4.1157Y-3.4858
X4.1157Y-3.689
X4.1157Y-3.839
X4.1157Y-3.989
X4.1157Y-4.889
X4.1157Y-5.039
X4.1157Y-5.189
X4.1157Y-5.3921
X4.1157Y-5.589
X4.1157Y-6.389
X4.1157Y-6.5858
X4.1157Y-6.789
X4.1157Y-6.939
X4.1157Y-7.089
X4.1657Y-2.739
X4.1657Y-3.039
X4.1657Y-5.839
X4.1657Y-6.139
X4.2657Y-2.2921
X4.2657Y-2.489
X4.2657Y-2.739
X4.2657Y-3.039
X4.2657Y-3.289
X4.2657Y-3.4858
X4.2657Y-5.3921
X4.2657Y-5.589
X4.2657Y-5.839
X4.2657Y-6.139
X4.2657Y-6.389
X4.2657Y-6.5858
X4.4157Y-2.2921
X4.4157Y-2.489
X4.4157Y-2.739
X4.4157Y-2.8374
X4.4157Y-3.289
X4.4157Y-3.4858
X4.4157Y-5.3921
X4.4157Y-5.589
X4.4157Y-5.839
X4.4157Y-5.9374
X4.4157Y-6.389
X4.4157Y-6.5858
X4.5157Y-1.789
X4.5157Y-1.939
X4.5157Y-2.089
X4.5157Y-3.689
X4.5157Y-3.839
X4.5157Y-3.989
X4.5157Y-4.889
X4.5157Y-5.039
X4.5157Y-5.189
X4.5157Y-6.789
X4.5157Y-6.939
X4.5157Y-7.089
X4.5657Y-2.2921
X4.5657Y-2.489
X4.5657Y-3.289
X4.5657Y-3.4858
X4.5657Y-5.3921
X4.5657Y-5.589
X4.5657Y-6.389
X4.5657Y-6.5858
X4.9657Y-2.2921
X4.9657Y-2.489
X4.9657Y-3.289
X4.9657Y-3.4858
X4.9657Y-5.3921
X4.9657Y-5.589
X5.0157Y-1.389
X5.0157Y-1.789
X5.0157Y-1.939
X5.0157Y-3.839
X5.0157Y-3.989
X5.0157Y-4.389
X5.0157Y-4.489
X5.0157Y-4.889
X5.0157Y-5.039
X5.0157Y-7.2921
X5.0157Y-7.489
X5.0657Y-6.389
X5.0657Y-6.539
X5.0657Y-6.839
X5.0657Y-6.989
X5.1157Y-2.2921
X5.1157Y-2.489
X5.1157Y-2.939
X5.1157Y-3.0374
X5.1157Y-3.289
X5.1157Y-3.4858
X5.1157Y-5.3921
X5.1157Y-5.589
X5.1157Y-6.039
X5.1157Y-6.1374
X5.1689Y-6.689
X5.2657Y-2.2921
X5.2657Y-2.489
X5.2657Y-2.739
X5.2657Y-3.039
X5.2657Y-3.289
X5.2657Y-3.4858
X5.2657Y-5.3921
X5.2657Y-5.589
X5.2657Y-5.839
X5.2657Y-6.139
X5.3657Y-2.739
X5.3657Y-3.039
X5.3657Y-5.839
X5.3657Y-6.139
X5.3657Y-6.689
X5.3689Y-7.139
X5.4157Y-1.939
X5.4157Y-2.2921
X5.4157Y-2.489
X5.4157Y-3.289
X5.4157Y-3.4858
X5.4157Y-3.839
X5.4157Y-4.889
X5.4157Y-5.039
X5.4157Y-5.3921
X5.4157Y-5.589
X5.4657Y-2.739
X5.4657Y-3.039
X5.4657Y-5.839
X5.4657Y-6.139
X5.4657Y-6.389
X5.4657Y-6.539
X5.4657Y-6.839
X5.4657Y-6.989
X5.5657Y-1.789
X5.5657Y-2.189
X5.5657Y-2.739
X5.5657Y-3.039
X5.5657Y-3.589
X5.5657Y-3.989
X5.5657Y-5.839
X5.5657Y-6.139
X5.5657Y-7.139
X5.6657Y-2.739
X5.6657Y-3.039
X5.6657Y-5.839
X5.6657Y-6.139
X5.6657Y-6.389
X5.6657Y-6.539
X5.6657Y-6.839
X5.6657Y-6.989
X5.7157Y-1.789
X5.7157Y-1.939
X5.7157Y-2.089
X5.7157Y-2.2921
X5.7157Y-2.489
X5.7157Y-3.289
X5.7157Y-3.4858
X5.7157Y-3.689
X5.7157Y-3.839
X5.7157Y-3.989
X5.7157Y-5.3921
X5.7157Y-5.589
X5.7657Y-2.739
X5.7657Y-3.039
X5.7657Y-5.839
X5.7657Y-6.139
X5.7657Y-6.689
X5.8157Y-4.739
X5.8157Y-4.889
X5.8157Y-5.039
X5.8657Y-2.2921
X5.8657Y-2.489
X5.8657Y-2.739
X5.8657Y-3.039
X5.8657Y-3.289
X5.8657Y-3.4858
X5.8657Y-5.3921
X5.8657Y-5.589
X5.8657Y-5.839
X5.8657Y-6.139
X5.8657Y-7.339
X5.9626Y-6.689
X6.0157Y-2.2921
X6.0157Y-2.489
X6.0157Y-2.739
X6.0157Y-2.8374
X6.0157Y-3.289
X6.0157Y-3.4858
X6.0157Y-5.3921
X6.0157Y-5.589
X6.0157Y-5.839
X6.0157Y-5.9374
X6.0626Y-7.339
X6.0657Y-6.389
X6.0657Y-6.539
X6.0657Y-6.839
X6.0657Y-6.989
X6.1157Y-1.789
X6.1157Y-1.939
X6.1157Y-2.089
X6.1157Y-3.689
X6.1157Y-3.839
X6.1157Y-3.989
X6.1657Y-2.2921
X6.1657Y-2.489
X6.1657Y-3.289
X6.1657Y-3.4858
X6.1657Y-5.389
X6.1657Y-5.5858
X6.2157Y-4.739
X6.2157Y-5.039
X6.5157Y-6.389
X6.5157Y-6.4874
X6.5657Y-2.2921
X6.5657Y-2.489
X6.5657Y-3.289
X6.5657Y-3.4858
X6.6157Y-1.389
X6.6157Y-1.789
X6.6157Y-1.939
X6.6157Y-3.839
X6.6157Y-3.989
X6.6157Y-4.389
X6.6657Y-6.939
X6.6657Y-7.0374
X6.7157Y-2.2921
X6.7157Y-2.489
X6.7157Y-2.939
X6.7157Y-3.0374
X6.7157Y-3.289
X6.7157Y-3.4858
X6.7157Y-6.039
X6.7157Y-6.1374
X6.7157Y-6.389
X6.7157Y-6.789
X6.8657Y-2.2921
X6.8657Y-2.489
X6.8657Y-2.739
X6.8657Y-3.039
X6.8657Y-3.289
X6.8657Y-3.4858
X6.8657Y-5.039
X6.8657Y-5.439
X6.8657Y-5.589
X6.8657Y-5.839
X6.8657Y-6.139
X6.8657Y-6.389
X6.8657Y-6.789
X6.9642Y-5.589
X6.9657Y-2.739
X6.9657Y-3.039
X6.9657Y-5.839
X6.9657Y-6.139
X7.0157Y-1.939
X7.0157Y-2.2921
X7.0157Y-2.489
X7.0157Y-3.289
X7.0157Y-3.4858
X7.0157Y-3.839
X7.0157Y-5.039
X7.0157Y-5.439
X7.0157Y-6.389
X7.0157Y-6.789
X7.0157Y-6.939
X7.0157Y-7.0374
X7.0657Y-2.739
X7.0657Y-3.039
X7.0657Y-5.839
X7.0657Y-6.139
X7.1657Y-1.789
X7.1657Y-2.189
X7.1657Y-2.739
X7.1657Y-3.039
X7.1657Y-3.589
X7.1657Y-3.989
X7.1657Y-5.839
X7.1657Y-6.139
X7.2657Y-2.739
X7.2657Y-3.039
X7.2657Y-5.839
X7.2657Y-6.139
X7.3157Y-1.789
X7.3157Y-1.939
X7.3157Y-2.089
X7.3157Y-2.2921
X7.3157Y-2.489
X7.3157Y-3.289
X7.3157Y-3.4858
X7.3157Y-3.689
X7.3157Y-3.839
X7.3157Y-3.989
X7.3157Y-5.039
X7.3157Y-5.439
X7.3657Y-2.739
X7.3657Y-3.039
X7.3657Y-5.839
X7.3657Y-6.139
X7.3673Y-5.589
X7.3673Y-6.339
X7.4657Y-2.2921
X7.4657Y-2.489
X7.4657Y-2.739
X7.4657Y-3.039
X7.4657Y-3.289
X7.4657Y-3.4858
X7.4657Y-5.039
X7.4657Y-5.439
X7.4657Y-5.589
X7.4657Y-5.839
X7.4657Y-6.139
X7.4657Y-6.339
X7.4657Y-6.539
X7.4657Y-6.639
X7.4657Y-6.739
X7.4657Y-6.839
X7.4657Y-6.939
X7.4657Y-7.039
X7.4657Y-7.139
X7.4657Y-7.239
X7.4657Y-7.339
X7.6157Y-2.2921
X7.6157Y-2.489
X7.6157Y-2.739
X7.6157Y-2.8374
X7.6157Y-3.289
X7.6157Y-3.4858
X7.6157Y-5.839
X7.6157Y-5.9374
X7.6657Y-6.439
X7.6657Y-6.539
X7.6657Y-6.639
X7.6657Y-6.739
X7.6657Y-6.839
X7.6657Y-6.939
X7.6657Y-7.039
X7.6657Y-7.139
X7.6657Y-7.239
X7.7157Y-1.789
X7.7157Y-1.939
X7.7157Y-2.089
X7.7157Y-3.689
X7.7157Y-3.839
X7.7157Y-3.989
X7.7157Y-4.339
X7.7173Y-4.839
X7.7657Y-2.2921
X7.7657Y-2.489
X7.7657Y-3.289
X7.7657Y-3.4858
X7.8142Y-4.339
X7.8157Y-4.839
X7.8157Y-5.739
X7.8157Y-6.139
X8.1657Y-6.539
X8.1657Y-6.639
X8.1657Y-6.739
X8.1657Y-6.839
X8.1657Y-6.939
X8.1657Y-7.039
X8.1657Y-7.139
X8.1657Y-7.239
X8.1657Y-7.339
X8.3657Y-6.439
X8.3657Y-6.539
X8.3657Y-6.639
X8.3657Y-6.739
X8.3657Y-6.839
X8.3657Y-6.939
X8.3657Y-7.039
X8.3657Y-7.139
X8.3657Y-7.239
T2
X1.4657Y-6.639
X1.4657Y-6.739
X1.4657Y-6.839
X1.4657Y-6.939
X1.4657Y-7.039
X1.4657Y-7.139
X2.0657Y-1.439
X2.1657Y-1.439
X2.2657Y-1.439
X2.3657Y-1.439
X2.4657Y-1.439
X2.5657Y-1.439
X2.6657Y-1.439
X2.7657Y-1.439
X6.4657Y-7.239
X6.5657Y-7.239
X6.6657Y-7.239
X6.7657Y-7.239
X7.0157Y-7.239
X7.1157Y-7.239
X7.2157Y-7.239
X7.8657Y-6.639
X7.8657Y-6.739
X7.8657Y-6.839
X7.8657Y-6.939
X7.8657Y-7.039
X7.8657Y-7.139
X7.8657Y-7.239
X7.9657Y-6.639
X7.9657Y-6.739
X7.9657Y-6.839
X7.9657Y-6.939
X7.9657Y-7.039
X7.9657Y-7.139
X7.9657Y-7.239
T3
X8.1657Y-4.389
X8.1657Y-4.489
X8.1657Y-4.589
X8.1657Y-4.689
X8.1657Y-4.789
X8.2657Y-4.389
X8.2657Y-4.489
X8.2657Y-4.589
X8.2657Y-4.689
X8.2657Y-4.789
T4
X8.0157Y-3.939
X8.0157Y-5.239
X8.4157Y-3.939
X8.4157Y-5.239
T0
M30
