G04 #@! TF.GenerationSoftware,KiCad,Pcbnew,5.1.10-88a1d61d58~90~ubuntu20.04.1*
G04 #@! TF.CreationDate,2021-09-18T22:03:32-04:00*
G04 #@! TF.ProjectId,ysFFB-panel,79734646-422d-4706-916e-656c2e6b6963,rev?*
G04 #@! TF.SameCoordinates,Original*
G04 #@! TF.FileFunction,Copper,L1,Top*
G04 #@! TF.FilePolarity,Positive*
%FSLAX46Y46*%
G04 Gerber Fmt 4.6, Leading zero omitted, Abs format (unit mm)*
G04 Created by KiCad (PCBNEW 5.1.10-88a1d61d58~90~ubuntu20.04.1) date 2021-09-18 22:03:32*
%MOMM*%
%LPD*%
G01*
G04 APERTURE LIST*
G04 #@! TA.AperFunction,ComponentPad*
%ADD10C,14.000000*%
G04 #@! TD*
G04 #@! TA.AperFunction,ComponentPad*
%ADD11C,4.000000*%
G04 #@! TD*
G04 #@! TA.AperFunction,ComponentPad*
%ADD12O,6.800000X4.000000*%
G04 #@! TD*
G04 #@! TA.AperFunction,Conductor*
%ADD13C,0.254000*%
G04 #@! TD*
G04 #@! TA.AperFunction,Conductor*
%ADD14C,0.100000*%
G04 #@! TD*
G04 APERTURE END LIST*
D10*
X180000000Y-175000000D03*
X140000000Y-175000000D03*
X100000000Y-175000000D03*
X60000000Y-175000000D03*
D11*
X195000000Y-14000000D03*
X6000000Y-14000000D03*
D10*
X20000000Y-175000000D03*
D12*
X195600000Y-3000000D03*
X195600000Y-197000000D03*
X4400000Y-3000000D03*
X4400000Y-197000000D03*
D13*
X192630475Y-879635D02*
X192246970Y-1226576D01*
X191938519Y-1641669D01*
X191716975Y-2108962D01*
X191620333Y-2462838D01*
X191727009Y-2873000D01*
X195473000Y-2873000D01*
X195473000Y-2853000D01*
X195727000Y-2853000D01*
X195727000Y-2873000D01*
X195747000Y-2873000D01*
X195747000Y-3127000D01*
X195727000Y-3127000D01*
X195727000Y-5635000D01*
X197127000Y-5635000D01*
X197638623Y-5559593D01*
X198125704Y-5385822D01*
X198569525Y-5120365D01*
X198953030Y-4773424D01*
X199261481Y-4358331D01*
X199315001Y-4245444D01*
X199315000Y-195754554D01*
X199261481Y-195641669D01*
X198953030Y-195226576D01*
X198569525Y-194879635D01*
X198125704Y-194614178D01*
X197638623Y-194440407D01*
X197127000Y-194365000D01*
X195727000Y-194365000D01*
X195727000Y-196873000D01*
X195747000Y-196873000D01*
X195747000Y-197127000D01*
X195727000Y-197127000D01*
X195727000Y-197147000D01*
X195473000Y-197147000D01*
X195473000Y-197127000D01*
X191727009Y-197127000D01*
X191620333Y-197537162D01*
X191716975Y-197891038D01*
X191938519Y-198358331D01*
X192246970Y-198773424D01*
X192630475Y-199120365D01*
X192955888Y-199315000D01*
X7044112Y-199315000D01*
X7369525Y-199120365D01*
X7753030Y-198773424D01*
X8061481Y-198358331D01*
X8283025Y-197891038D01*
X8379667Y-197537162D01*
X8272991Y-197127000D01*
X4527000Y-197127000D01*
X4527000Y-197147000D01*
X4273000Y-197147000D01*
X4273000Y-197127000D01*
X4253000Y-197127000D01*
X4253000Y-196873000D01*
X4273000Y-196873000D01*
X4273000Y-194365000D01*
X4527000Y-194365000D01*
X4527000Y-196873000D01*
X8272991Y-196873000D01*
X8379667Y-196462838D01*
X191620333Y-196462838D01*
X191727009Y-196873000D01*
X195473000Y-196873000D01*
X195473000Y-194365000D01*
X194073000Y-194365000D01*
X193561377Y-194440407D01*
X193074296Y-194614178D01*
X192630475Y-194879635D01*
X192246970Y-195226576D01*
X191938519Y-195641669D01*
X191716975Y-196108962D01*
X191620333Y-196462838D01*
X8379667Y-196462838D01*
X8283025Y-196108962D01*
X8061481Y-195641669D01*
X7753030Y-195226576D01*
X7369525Y-194879635D01*
X6925704Y-194614178D01*
X6438623Y-194440407D01*
X5927000Y-194365000D01*
X4527000Y-194365000D01*
X4273000Y-194365000D01*
X2873000Y-194365000D01*
X2361377Y-194440407D01*
X1874296Y-194614178D01*
X1430475Y-194879635D01*
X1046970Y-195226576D01*
X738519Y-195641669D01*
X685000Y-195754554D01*
X685000Y-180401674D01*
X14777932Y-180401674D01*
X15593908Y-181280530D01*
X16903840Y-182019437D01*
X18332756Y-182488591D01*
X19825743Y-182669963D01*
X21325428Y-182556583D01*
X22774176Y-182152807D01*
X24116314Y-181474153D01*
X24406092Y-181280530D01*
X25222068Y-180401674D01*
X54777932Y-180401674D01*
X55593908Y-181280530D01*
X56903840Y-182019437D01*
X58332756Y-182488591D01*
X59825743Y-182669963D01*
X61325428Y-182556583D01*
X62774176Y-182152807D01*
X64116314Y-181474153D01*
X64406092Y-181280530D01*
X65222068Y-180401674D01*
X94777932Y-180401674D01*
X95593908Y-181280530D01*
X96903840Y-182019437D01*
X98332756Y-182488591D01*
X99825743Y-182669963D01*
X101325428Y-182556583D01*
X102774176Y-182152807D01*
X104116314Y-181474153D01*
X104406092Y-181280530D01*
X105222068Y-180401674D01*
X134777932Y-180401674D01*
X135593908Y-181280530D01*
X136903840Y-182019437D01*
X138332756Y-182488591D01*
X139825743Y-182669963D01*
X141325428Y-182556583D01*
X142774176Y-182152807D01*
X144116314Y-181474153D01*
X144406092Y-181280530D01*
X145222068Y-180401674D01*
X174777932Y-180401674D01*
X175593908Y-181280530D01*
X176903840Y-182019437D01*
X178332756Y-182488591D01*
X179825743Y-182669963D01*
X181325428Y-182556583D01*
X182774176Y-182152807D01*
X184116314Y-181474153D01*
X184406092Y-181280530D01*
X185222068Y-180401674D01*
X180000000Y-175179605D01*
X174777932Y-180401674D01*
X145222068Y-180401674D01*
X140000000Y-175179605D01*
X134777932Y-180401674D01*
X105222068Y-180401674D01*
X100000000Y-175179605D01*
X94777932Y-180401674D01*
X65222068Y-180401674D01*
X60000000Y-175179605D01*
X54777932Y-180401674D01*
X25222068Y-180401674D01*
X20000000Y-175179605D01*
X14777932Y-180401674D01*
X685000Y-180401674D01*
X685000Y-174825743D01*
X12330037Y-174825743D01*
X12443417Y-176325428D01*
X12847193Y-177774176D01*
X13525847Y-179116314D01*
X13719470Y-179406092D01*
X14598326Y-180222068D01*
X19820395Y-175000000D01*
X20179605Y-175000000D01*
X25401674Y-180222068D01*
X26280530Y-179406092D01*
X27019437Y-178096160D01*
X27488591Y-176667244D01*
X27669963Y-175174257D01*
X27643615Y-174825743D01*
X52330037Y-174825743D01*
X52443417Y-176325428D01*
X52847193Y-177774176D01*
X53525847Y-179116314D01*
X53719470Y-179406092D01*
X54598326Y-180222068D01*
X59820395Y-175000000D01*
X60179605Y-175000000D01*
X65401674Y-180222068D01*
X66280530Y-179406092D01*
X67019437Y-178096160D01*
X67488591Y-176667244D01*
X67669963Y-175174257D01*
X67643615Y-174825743D01*
X92330037Y-174825743D01*
X92443417Y-176325428D01*
X92847193Y-177774176D01*
X93525847Y-179116314D01*
X93719470Y-179406092D01*
X94598326Y-180222068D01*
X99820395Y-175000000D01*
X100179605Y-175000000D01*
X105401674Y-180222068D01*
X106280530Y-179406092D01*
X107019437Y-178096160D01*
X107488591Y-176667244D01*
X107669963Y-175174257D01*
X107643615Y-174825743D01*
X132330037Y-174825743D01*
X132443417Y-176325428D01*
X132847193Y-177774176D01*
X133525847Y-179116314D01*
X133719470Y-179406092D01*
X134598326Y-180222068D01*
X139820395Y-175000000D01*
X140179605Y-175000000D01*
X145401674Y-180222068D01*
X146280530Y-179406092D01*
X147019437Y-178096160D01*
X147488591Y-176667244D01*
X147669963Y-175174257D01*
X147643615Y-174825743D01*
X172330037Y-174825743D01*
X172443417Y-176325428D01*
X172847193Y-177774176D01*
X173525847Y-179116314D01*
X173719470Y-179406092D01*
X174598326Y-180222068D01*
X179820395Y-175000000D01*
X180179605Y-175000000D01*
X185401674Y-180222068D01*
X186280530Y-179406092D01*
X187019437Y-178096160D01*
X187488591Y-176667244D01*
X187669963Y-175174257D01*
X187556583Y-173674572D01*
X187152807Y-172225824D01*
X186474153Y-170883686D01*
X186280530Y-170593908D01*
X185401674Y-169777932D01*
X180179605Y-175000000D01*
X179820395Y-175000000D01*
X174598326Y-169777932D01*
X173719470Y-170593908D01*
X172980563Y-171903840D01*
X172511409Y-173332756D01*
X172330037Y-174825743D01*
X147643615Y-174825743D01*
X147556583Y-173674572D01*
X147152807Y-172225824D01*
X146474153Y-170883686D01*
X146280530Y-170593908D01*
X145401674Y-169777932D01*
X140179605Y-175000000D01*
X139820395Y-175000000D01*
X134598326Y-169777932D01*
X133719470Y-170593908D01*
X132980563Y-171903840D01*
X132511409Y-173332756D01*
X132330037Y-174825743D01*
X107643615Y-174825743D01*
X107556583Y-173674572D01*
X107152807Y-172225824D01*
X106474153Y-170883686D01*
X106280530Y-170593908D01*
X105401674Y-169777932D01*
X100179605Y-175000000D01*
X99820395Y-175000000D01*
X94598326Y-169777932D01*
X93719470Y-170593908D01*
X92980563Y-171903840D01*
X92511409Y-173332756D01*
X92330037Y-174825743D01*
X67643615Y-174825743D01*
X67556583Y-173674572D01*
X67152807Y-172225824D01*
X66474153Y-170883686D01*
X66280530Y-170593908D01*
X65401674Y-169777932D01*
X60179605Y-175000000D01*
X59820395Y-175000000D01*
X54598326Y-169777932D01*
X53719470Y-170593908D01*
X52980563Y-171903840D01*
X52511409Y-173332756D01*
X52330037Y-174825743D01*
X27643615Y-174825743D01*
X27556583Y-173674572D01*
X27152807Y-172225824D01*
X26474153Y-170883686D01*
X26280530Y-170593908D01*
X25401674Y-169777932D01*
X20179605Y-175000000D01*
X19820395Y-175000000D01*
X14598326Y-169777932D01*
X13719470Y-170593908D01*
X12980563Y-171903840D01*
X12511409Y-173332756D01*
X12330037Y-174825743D01*
X685000Y-174825743D01*
X685000Y-169598326D01*
X14777932Y-169598326D01*
X20000000Y-174820395D01*
X25222068Y-169598326D01*
X54777932Y-169598326D01*
X60000000Y-174820395D01*
X65222068Y-169598326D01*
X94777932Y-169598326D01*
X100000000Y-174820395D01*
X105222068Y-169598326D01*
X134777932Y-169598326D01*
X140000000Y-174820395D01*
X145222068Y-169598326D01*
X174777932Y-169598326D01*
X180000000Y-174820395D01*
X185222068Y-169598326D01*
X184406092Y-168719470D01*
X183096160Y-167980563D01*
X181667244Y-167511409D01*
X180174257Y-167330037D01*
X178674572Y-167443417D01*
X177225824Y-167847193D01*
X175883686Y-168525847D01*
X175593908Y-168719470D01*
X174777932Y-169598326D01*
X145222068Y-169598326D01*
X144406092Y-168719470D01*
X143096160Y-167980563D01*
X141667244Y-167511409D01*
X140174257Y-167330037D01*
X138674572Y-167443417D01*
X137225824Y-167847193D01*
X135883686Y-168525847D01*
X135593908Y-168719470D01*
X134777932Y-169598326D01*
X105222068Y-169598326D01*
X104406092Y-168719470D01*
X103096160Y-167980563D01*
X101667244Y-167511409D01*
X100174257Y-167330037D01*
X98674572Y-167443417D01*
X97225824Y-167847193D01*
X95883686Y-168525847D01*
X95593908Y-168719470D01*
X94777932Y-169598326D01*
X65222068Y-169598326D01*
X64406092Y-168719470D01*
X63096160Y-167980563D01*
X61667244Y-167511409D01*
X60174257Y-167330037D01*
X58674572Y-167443417D01*
X57225824Y-167847193D01*
X55883686Y-168525847D01*
X55593908Y-168719470D01*
X54777932Y-169598326D01*
X25222068Y-169598326D01*
X24406092Y-168719470D01*
X23096160Y-167980563D01*
X21667244Y-167511409D01*
X20174257Y-167330037D01*
X18674572Y-167443417D01*
X17225824Y-167847193D01*
X15883686Y-168525847D01*
X15593908Y-168719470D01*
X14777932Y-169598326D01*
X685000Y-169598326D01*
X685000Y-54000000D01*
X7511686Y-54000000D01*
X7515001Y-54033657D01*
X7515000Y-119966353D01*
X7511686Y-120000000D01*
X7524912Y-120134283D01*
X7564081Y-120263406D01*
X7627688Y-120382407D01*
X7713289Y-120486711D01*
X7817593Y-120572312D01*
X7936594Y-120635919D01*
X8065717Y-120675088D01*
X8200000Y-120688314D01*
X8233647Y-120685000D01*
X9766353Y-120685000D01*
X9800000Y-120688314D01*
X9934283Y-120675088D01*
X10063406Y-120635919D01*
X10182407Y-120572312D01*
X10286711Y-120486711D01*
X10372312Y-120382407D01*
X10435919Y-120263406D01*
X10475088Y-120134283D01*
X10485000Y-120033647D01*
X10485000Y-120033646D01*
X10488314Y-120000000D01*
X10485000Y-119966353D01*
X10485000Y-54033647D01*
X10488314Y-54000000D01*
X21511686Y-54000000D01*
X21515001Y-54033657D01*
X21515000Y-119966353D01*
X21511686Y-120000000D01*
X21524912Y-120134283D01*
X21564081Y-120263406D01*
X21627688Y-120382407D01*
X21713289Y-120486711D01*
X21817593Y-120572312D01*
X21936594Y-120635919D01*
X22065717Y-120675088D01*
X22200000Y-120688314D01*
X22233647Y-120685000D01*
X23766353Y-120685000D01*
X23800000Y-120688314D01*
X23934283Y-120675088D01*
X24063406Y-120635919D01*
X24182407Y-120572312D01*
X24286711Y-120486711D01*
X24372312Y-120382407D01*
X24435919Y-120263406D01*
X24475088Y-120134283D01*
X24485000Y-120033647D01*
X24485000Y-120033646D01*
X24488314Y-120000000D01*
X24485000Y-119966353D01*
X24485000Y-54033647D01*
X24488314Y-54000000D01*
X35511686Y-54000000D01*
X35515001Y-54033657D01*
X35515000Y-119966353D01*
X35511686Y-120000000D01*
X35524912Y-120134283D01*
X35564081Y-120263406D01*
X35627688Y-120382407D01*
X35713289Y-120486711D01*
X35817593Y-120572312D01*
X35936594Y-120635919D01*
X36065717Y-120675088D01*
X36200000Y-120688314D01*
X36233647Y-120685000D01*
X37766353Y-120685000D01*
X37800000Y-120688314D01*
X37934283Y-120675088D01*
X38063406Y-120635919D01*
X38182407Y-120572312D01*
X38286711Y-120486711D01*
X38372312Y-120382407D01*
X38435919Y-120263406D01*
X38475088Y-120134283D01*
X38485000Y-120033647D01*
X38485000Y-120033646D01*
X38488314Y-120000000D01*
X38485000Y-119966353D01*
X38485000Y-54033647D01*
X38488314Y-54000000D01*
X49511686Y-54000000D01*
X49515001Y-54033657D01*
X49515000Y-119966353D01*
X49511686Y-120000000D01*
X49524912Y-120134283D01*
X49564081Y-120263406D01*
X49627688Y-120382407D01*
X49713289Y-120486711D01*
X49817593Y-120572312D01*
X49936594Y-120635919D01*
X50065717Y-120675088D01*
X50200000Y-120688314D01*
X50233647Y-120685000D01*
X51766353Y-120685000D01*
X51800000Y-120688314D01*
X51934283Y-120675088D01*
X52063406Y-120635919D01*
X52182407Y-120572312D01*
X52286711Y-120486711D01*
X52372312Y-120382407D01*
X52435919Y-120263406D01*
X52475088Y-120134283D01*
X52485000Y-120033647D01*
X52485000Y-120033646D01*
X52488314Y-120000000D01*
X52485000Y-119966353D01*
X52485000Y-54033647D01*
X52488314Y-54000000D01*
X63511686Y-54000000D01*
X63515001Y-54033657D01*
X63515000Y-119966353D01*
X63511686Y-120000000D01*
X63524912Y-120134283D01*
X63564081Y-120263406D01*
X63627688Y-120382407D01*
X63713289Y-120486711D01*
X63817593Y-120572312D01*
X63936594Y-120635919D01*
X64065717Y-120675088D01*
X64200000Y-120688314D01*
X64233647Y-120685000D01*
X65766353Y-120685000D01*
X65800000Y-120688314D01*
X65934283Y-120675088D01*
X66063406Y-120635919D01*
X66182407Y-120572312D01*
X66286711Y-120486711D01*
X66372312Y-120382407D01*
X66435919Y-120263406D01*
X66475088Y-120134283D01*
X66485000Y-120033647D01*
X66485000Y-120033646D01*
X66488314Y-120000000D01*
X66485000Y-119966353D01*
X66485000Y-54033647D01*
X66488314Y-54000000D01*
X77511686Y-54000000D01*
X77515001Y-54033657D01*
X77515000Y-119966353D01*
X77511686Y-120000000D01*
X77524912Y-120134283D01*
X77564081Y-120263406D01*
X77627688Y-120382407D01*
X77713289Y-120486711D01*
X77817593Y-120572312D01*
X77936594Y-120635919D01*
X78065717Y-120675088D01*
X78200000Y-120688314D01*
X78233647Y-120685000D01*
X79766353Y-120685000D01*
X79800000Y-120688314D01*
X79934283Y-120675088D01*
X80063406Y-120635919D01*
X80182407Y-120572312D01*
X80286711Y-120486711D01*
X80372312Y-120382407D01*
X80435919Y-120263406D01*
X80475088Y-120134283D01*
X80485000Y-120033647D01*
X80485000Y-120033646D01*
X80488314Y-120000000D01*
X80485000Y-119966353D01*
X80485000Y-54033647D01*
X80488314Y-54000000D01*
X91511686Y-54000000D01*
X91515001Y-54033657D01*
X91515000Y-119966353D01*
X91511686Y-120000000D01*
X91524912Y-120134283D01*
X91564081Y-120263406D01*
X91627688Y-120382407D01*
X91713289Y-120486711D01*
X91817593Y-120572312D01*
X91936594Y-120635919D01*
X92065717Y-120675088D01*
X92200000Y-120688314D01*
X92233647Y-120685000D01*
X93766353Y-120685000D01*
X93800000Y-120688314D01*
X93934283Y-120675088D01*
X94063406Y-120635919D01*
X94182407Y-120572312D01*
X94286711Y-120486711D01*
X94372312Y-120382407D01*
X94435919Y-120263406D01*
X94475088Y-120134283D01*
X94485000Y-120033647D01*
X94485000Y-120033646D01*
X94488314Y-120000000D01*
X94485000Y-119966353D01*
X94485000Y-54033647D01*
X94488314Y-54000000D01*
X105511686Y-54000000D01*
X105515001Y-54033657D01*
X105515000Y-119966353D01*
X105511686Y-120000000D01*
X105524912Y-120134283D01*
X105564081Y-120263406D01*
X105627688Y-120382407D01*
X105713289Y-120486711D01*
X105817593Y-120572312D01*
X105936594Y-120635919D01*
X106065717Y-120675088D01*
X106200000Y-120688314D01*
X106233647Y-120685000D01*
X107766353Y-120685000D01*
X107800000Y-120688314D01*
X107934283Y-120675088D01*
X108063406Y-120635919D01*
X108182407Y-120572312D01*
X108286711Y-120486711D01*
X108372312Y-120382407D01*
X108435919Y-120263406D01*
X108475088Y-120134283D01*
X108485000Y-120033647D01*
X108485000Y-120033646D01*
X108488314Y-120000000D01*
X108485000Y-119966353D01*
X108485000Y-54033647D01*
X108488314Y-54000000D01*
X119511686Y-54000000D01*
X119515001Y-54033657D01*
X119515000Y-119966353D01*
X119511686Y-120000000D01*
X119524912Y-120134283D01*
X119564081Y-120263406D01*
X119627688Y-120382407D01*
X119713289Y-120486711D01*
X119817593Y-120572312D01*
X119936594Y-120635919D01*
X120065717Y-120675088D01*
X120200000Y-120688314D01*
X120233647Y-120685000D01*
X121766353Y-120685000D01*
X121800000Y-120688314D01*
X121934283Y-120675088D01*
X122063406Y-120635919D01*
X122182407Y-120572312D01*
X122286711Y-120486711D01*
X122372312Y-120382407D01*
X122435919Y-120263406D01*
X122475088Y-120134283D01*
X122485000Y-120033647D01*
X122485000Y-120033646D01*
X122488314Y-120000000D01*
X122485000Y-119966353D01*
X122485000Y-54033647D01*
X122488314Y-54000000D01*
X133511686Y-54000000D01*
X133515001Y-54033657D01*
X133515000Y-119966353D01*
X133511686Y-120000000D01*
X133524912Y-120134283D01*
X133564081Y-120263406D01*
X133627688Y-120382407D01*
X133713289Y-120486711D01*
X133817593Y-120572312D01*
X133936594Y-120635919D01*
X134065717Y-120675088D01*
X134200000Y-120688314D01*
X134233647Y-120685000D01*
X135766353Y-120685000D01*
X135800000Y-120688314D01*
X135934283Y-120675088D01*
X136063406Y-120635919D01*
X136182407Y-120572312D01*
X136286711Y-120486711D01*
X136372312Y-120382407D01*
X136435919Y-120263406D01*
X136475088Y-120134283D01*
X136485000Y-120033647D01*
X136485000Y-120033646D01*
X136488314Y-120000000D01*
X136485000Y-119966353D01*
X136485000Y-54033647D01*
X136488314Y-54000000D01*
X147511686Y-54000000D01*
X147515001Y-54033657D01*
X147515000Y-119966353D01*
X147511686Y-120000000D01*
X147524912Y-120134283D01*
X147564081Y-120263406D01*
X147627688Y-120382407D01*
X147713289Y-120486711D01*
X147817593Y-120572312D01*
X147936594Y-120635919D01*
X148065717Y-120675088D01*
X148200000Y-120688314D01*
X148233647Y-120685000D01*
X149766353Y-120685000D01*
X149800000Y-120688314D01*
X149934283Y-120675088D01*
X150063406Y-120635919D01*
X150182407Y-120572312D01*
X150286711Y-120486711D01*
X150372312Y-120382407D01*
X150435919Y-120263406D01*
X150475088Y-120134283D01*
X150485000Y-120033647D01*
X150485000Y-120033646D01*
X150488314Y-120000000D01*
X150485000Y-119966353D01*
X150485000Y-54033647D01*
X150488314Y-54000000D01*
X161511686Y-54000000D01*
X161515001Y-54033657D01*
X161515000Y-119966353D01*
X161511686Y-120000000D01*
X161524912Y-120134283D01*
X161564081Y-120263406D01*
X161627688Y-120382407D01*
X161713289Y-120486711D01*
X161817593Y-120572312D01*
X161936594Y-120635919D01*
X162065717Y-120675088D01*
X162200000Y-120688314D01*
X162233647Y-120685000D01*
X163766353Y-120685000D01*
X163800000Y-120688314D01*
X163934283Y-120675088D01*
X164063406Y-120635919D01*
X164182407Y-120572312D01*
X164286711Y-120486711D01*
X164372312Y-120382407D01*
X164435919Y-120263406D01*
X164475088Y-120134283D01*
X164485000Y-120033647D01*
X164485000Y-120033646D01*
X164488314Y-120000000D01*
X164485000Y-119966353D01*
X164485000Y-54033647D01*
X164488314Y-54000000D01*
X175511686Y-54000000D01*
X175515001Y-54033657D01*
X175515000Y-119966353D01*
X175511686Y-120000000D01*
X175524912Y-120134283D01*
X175564081Y-120263406D01*
X175627688Y-120382407D01*
X175713289Y-120486711D01*
X175817593Y-120572312D01*
X175936594Y-120635919D01*
X176065717Y-120675088D01*
X176200000Y-120688314D01*
X176233647Y-120685000D01*
X177766353Y-120685000D01*
X177800000Y-120688314D01*
X177934283Y-120675088D01*
X178063406Y-120635919D01*
X178182407Y-120572312D01*
X178286711Y-120486711D01*
X178372312Y-120382407D01*
X178435919Y-120263406D01*
X178475088Y-120134283D01*
X178485000Y-120033647D01*
X178485000Y-120033646D01*
X178488314Y-120000000D01*
X178485000Y-119966353D01*
X178485000Y-54033647D01*
X178488314Y-54000000D01*
X189511686Y-54000000D01*
X189515001Y-54033657D01*
X189515000Y-119966353D01*
X189511686Y-120000000D01*
X189524912Y-120134283D01*
X189564081Y-120263406D01*
X189627688Y-120382407D01*
X189713289Y-120486711D01*
X189817593Y-120572312D01*
X189936594Y-120635919D01*
X190065717Y-120675088D01*
X190200000Y-120688314D01*
X190233647Y-120685000D01*
X191766353Y-120685000D01*
X191800000Y-120688314D01*
X191934283Y-120675088D01*
X192063406Y-120635919D01*
X192182407Y-120572312D01*
X192286711Y-120486711D01*
X192372312Y-120382407D01*
X192435919Y-120263406D01*
X192475088Y-120134283D01*
X192485000Y-120033647D01*
X192485000Y-120033646D01*
X192488314Y-120000000D01*
X192485000Y-119966353D01*
X192485000Y-54033647D01*
X192488314Y-54000000D01*
X192475088Y-53865717D01*
X192435919Y-53736594D01*
X192372312Y-53617593D01*
X192286711Y-53513289D01*
X192182407Y-53427688D01*
X192063406Y-53364081D01*
X191934283Y-53324912D01*
X191833647Y-53315000D01*
X191800000Y-53311686D01*
X191766353Y-53315000D01*
X190233647Y-53315000D01*
X190200000Y-53311686D01*
X190166353Y-53315000D01*
X190065717Y-53324912D01*
X189936594Y-53364081D01*
X189817593Y-53427688D01*
X189713289Y-53513289D01*
X189627688Y-53617593D01*
X189564081Y-53736594D01*
X189524912Y-53865717D01*
X189511686Y-54000000D01*
X178488314Y-54000000D01*
X178475088Y-53865717D01*
X178435919Y-53736594D01*
X178372312Y-53617593D01*
X178286711Y-53513289D01*
X178182407Y-53427688D01*
X178063406Y-53364081D01*
X177934283Y-53324912D01*
X177833647Y-53315000D01*
X177800000Y-53311686D01*
X177766353Y-53315000D01*
X176233647Y-53315000D01*
X176200000Y-53311686D01*
X176166353Y-53315000D01*
X176065717Y-53324912D01*
X175936594Y-53364081D01*
X175817593Y-53427688D01*
X175713289Y-53513289D01*
X175627688Y-53617593D01*
X175564081Y-53736594D01*
X175524912Y-53865717D01*
X175511686Y-54000000D01*
X164488314Y-54000000D01*
X164475088Y-53865717D01*
X164435919Y-53736594D01*
X164372312Y-53617593D01*
X164286711Y-53513289D01*
X164182407Y-53427688D01*
X164063406Y-53364081D01*
X163934283Y-53324912D01*
X163833647Y-53315000D01*
X163800000Y-53311686D01*
X163766353Y-53315000D01*
X162233647Y-53315000D01*
X162200000Y-53311686D01*
X162166353Y-53315000D01*
X162065717Y-53324912D01*
X161936594Y-53364081D01*
X161817593Y-53427688D01*
X161713289Y-53513289D01*
X161627688Y-53617593D01*
X161564081Y-53736594D01*
X161524912Y-53865717D01*
X161511686Y-54000000D01*
X150488314Y-54000000D01*
X150475088Y-53865717D01*
X150435919Y-53736594D01*
X150372312Y-53617593D01*
X150286711Y-53513289D01*
X150182407Y-53427688D01*
X150063406Y-53364081D01*
X149934283Y-53324912D01*
X149833647Y-53315000D01*
X149800000Y-53311686D01*
X149766353Y-53315000D01*
X148233647Y-53315000D01*
X148200000Y-53311686D01*
X148166353Y-53315000D01*
X148065717Y-53324912D01*
X147936594Y-53364081D01*
X147817593Y-53427688D01*
X147713289Y-53513289D01*
X147627688Y-53617593D01*
X147564081Y-53736594D01*
X147524912Y-53865717D01*
X147511686Y-54000000D01*
X136488314Y-54000000D01*
X136475088Y-53865717D01*
X136435919Y-53736594D01*
X136372312Y-53617593D01*
X136286711Y-53513289D01*
X136182407Y-53427688D01*
X136063406Y-53364081D01*
X135934283Y-53324912D01*
X135833647Y-53315000D01*
X135800000Y-53311686D01*
X135766353Y-53315000D01*
X134233647Y-53315000D01*
X134200000Y-53311686D01*
X134166353Y-53315000D01*
X134065717Y-53324912D01*
X133936594Y-53364081D01*
X133817593Y-53427688D01*
X133713289Y-53513289D01*
X133627688Y-53617593D01*
X133564081Y-53736594D01*
X133524912Y-53865717D01*
X133511686Y-54000000D01*
X122488314Y-54000000D01*
X122475088Y-53865717D01*
X122435919Y-53736594D01*
X122372312Y-53617593D01*
X122286711Y-53513289D01*
X122182407Y-53427688D01*
X122063406Y-53364081D01*
X121934283Y-53324912D01*
X121833647Y-53315000D01*
X121800000Y-53311686D01*
X121766353Y-53315000D01*
X120233647Y-53315000D01*
X120200000Y-53311686D01*
X120166353Y-53315000D01*
X120065717Y-53324912D01*
X119936594Y-53364081D01*
X119817593Y-53427688D01*
X119713289Y-53513289D01*
X119627688Y-53617593D01*
X119564081Y-53736594D01*
X119524912Y-53865717D01*
X119511686Y-54000000D01*
X108488314Y-54000000D01*
X108475088Y-53865717D01*
X108435919Y-53736594D01*
X108372312Y-53617593D01*
X108286711Y-53513289D01*
X108182407Y-53427688D01*
X108063406Y-53364081D01*
X107934283Y-53324912D01*
X107833647Y-53315000D01*
X107800000Y-53311686D01*
X107766353Y-53315000D01*
X106233647Y-53315000D01*
X106200000Y-53311686D01*
X106166353Y-53315000D01*
X106065717Y-53324912D01*
X105936594Y-53364081D01*
X105817593Y-53427688D01*
X105713289Y-53513289D01*
X105627688Y-53617593D01*
X105564081Y-53736594D01*
X105524912Y-53865717D01*
X105511686Y-54000000D01*
X94488314Y-54000000D01*
X94475088Y-53865717D01*
X94435919Y-53736594D01*
X94372312Y-53617593D01*
X94286711Y-53513289D01*
X94182407Y-53427688D01*
X94063406Y-53364081D01*
X93934283Y-53324912D01*
X93833647Y-53315000D01*
X93800000Y-53311686D01*
X93766353Y-53315000D01*
X92233647Y-53315000D01*
X92200000Y-53311686D01*
X92166353Y-53315000D01*
X92065717Y-53324912D01*
X91936594Y-53364081D01*
X91817593Y-53427688D01*
X91713289Y-53513289D01*
X91627688Y-53617593D01*
X91564081Y-53736594D01*
X91524912Y-53865717D01*
X91511686Y-54000000D01*
X80488314Y-54000000D01*
X80475088Y-53865717D01*
X80435919Y-53736594D01*
X80372312Y-53617593D01*
X80286711Y-53513289D01*
X80182407Y-53427688D01*
X80063406Y-53364081D01*
X79934283Y-53324912D01*
X79833647Y-53315000D01*
X79800000Y-53311686D01*
X79766353Y-53315000D01*
X78233647Y-53315000D01*
X78200000Y-53311686D01*
X78166353Y-53315000D01*
X78065717Y-53324912D01*
X77936594Y-53364081D01*
X77817593Y-53427688D01*
X77713289Y-53513289D01*
X77627688Y-53617593D01*
X77564081Y-53736594D01*
X77524912Y-53865717D01*
X77511686Y-54000000D01*
X66488314Y-54000000D01*
X66475088Y-53865717D01*
X66435919Y-53736594D01*
X66372312Y-53617593D01*
X66286711Y-53513289D01*
X66182407Y-53427688D01*
X66063406Y-53364081D01*
X65934283Y-53324912D01*
X65833647Y-53315000D01*
X65800000Y-53311686D01*
X65766353Y-53315000D01*
X64233647Y-53315000D01*
X64200000Y-53311686D01*
X64166353Y-53315000D01*
X64065717Y-53324912D01*
X63936594Y-53364081D01*
X63817593Y-53427688D01*
X63713289Y-53513289D01*
X63627688Y-53617593D01*
X63564081Y-53736594D01*
X63524912Y-53865717D01*
X63511686Y-54000000D01*
X52488314Y-54000000D01*
X52475088Y-53865717D01*
X52435919Y-53736594D01*
X52372312Y-53617593D01*
X52286711Y-53513289D01*
X52182407Y-53427688D01*
X52063406Y-53364081D01*
X51934283Y-53324912D01*
X51833647Y-53315000D01*
X51800000Y-53311686D01*
X51766353Y-53315000D01*
X50233647Y-53315000D01*
X50200000Y-53311686D01*
X50166353Y-53315000D01*
X50065717Y-53324912D01*
X49936594Y-53364081D01*
X49817593Y-53427688D01*
X49713289Y-53513289D01*
X49627688Y-53617593D01*
X49564081Y-53736594D01*
X49524912Y-53865717D01*
X49511686Y-54000000D01*
X38488314Y-54000000D01*
X38475088Y-53865717D01*
X38435919Y-53736594D01*
X38372312Y-53617593D01*
X38286711Y-53513289D01*
X38182407Y-53427688D01*
X38063406Y-53364081D01*
X37934283Y-53324912D01*
X37833647Y-53315000D01*
X37800000Y-53311686D01*
X37766353Y-53315000D01*
X36233647Y-53315000D01*
X36200000Y-53311686D01*
X36166353Y-53315000D01*
X36065717Y-53324912D01*
X35936594Y-53364081D01*
X35817593Y-53427688D01*
X35713289Y-53513289D01*
X35627688Y-53617593D01*
X35564081Y-53736594D01*
X35524912Y-53865717D01*
X35511686Y-54000000D01*
X24488314Y-54000000D01*
X24475088Y-53865717D01*
X24435919Y-53736594D01*
X24372312Y-53617593D01*
X24286711Y-53513289D01*
X24182407Y-53427688D01*
X24063406Y-53364081D01*
X23934283Y-53324912D01*
X23833647Y-53315000D01*
X23800000Y-53311686D01*
X23766353Y-53315000D01*
X22233647Y-53315000D01*
X22200000Y-53311686D01*
X22166353Y-53315000D01*
X22065717Y-53324912D01*
X21936594Y-53364081D01*
X21817593Y-53427688D01*
X21713289Y-53513289D01*
X21627688Y-53617593D01*
X21564081Y-53736594D01*
X21524912Y-53865717D01*
X21511686Y-54000000D01*
X10488314Y-54000000D01*
X10475088Y-53865717D01*
X10435919Y-53736594D01*
X10372312Y-53617593D01*
X10286711Y-53513289D01*
X10182407Y-53427688D01*
X10063406Y-53364081D01*
X9934283Y-53324912D01*
X9833647Y-53315000D01*
X9800000Y-53311686D01*
X9766353Y-53315000D01*
X8233647Y-53315000D01*
X8200000Y-53311686D01*
X8166353Y-53315000D01*
X8065717Y-53324912D01*
X7936594Y-53364081D01*
X7817593Y-53427688D01*
X7713289Y-53513289D01*
X7627688Y-53617593D01*
X7564081Y-53736594D01*
X7524912Y-53865717D01*
X7511686Y-54000000D01*
X685000Y-54000000D01*
X685000Y-15847499D01*
X4332106Y-15847499D01*
X4548228Y-16214258D01*
X5008105Y-16454938D01*
X5506098Y-16601275D01*
X6023071Y-16647648D01*
X6539159Y-16592273D01*
X7034526Y-16437279D01*
X7451772Y-16214258D01*
X7667894Y-15847499D01*
X193332106Y-15847499D01*
X193548228Y-16214258D01*
X194008105Y-16454938D01*
X194506098Y-16601275D01*
X195023071Y-16647648D01*
X195539159Y-16592273D01*
X196034526Y-16437279D01*
X196451772Y-16214258D01*
X196667894Y-15847499D01*
X195000000Y-14179605D01*
X193332106Y-15847499D01*
X7667894Y-15847499D01*
X6000000Y-14179605D01*
X4332106Y-15847499D01*
X685000Y-15847499D01*
X685000Y-14023071D01*
X3352352Y-14023071D01*
X3407727Y-14539159D01*
X3562721Y-15034526D01*
X3785742Y-15451772D01*
X4152501Y-15667894D01*
X5820395Y-14000000D01*
X6179605Y-14000000D01*
X7847499Y-15667894D01*
X8214258Y-15451772D01*
X8454938Y-14991895D01*
X8601275Y-14493902D01*
X8643509Y-14023071D01*
X192352352Y-14023071D01*
X192407727Y-14539159D01*
X192562721Y-15034526D01*
X192785742Y-15451772D01*
X193152501Y-15667894D01*
X194820395Y-14000000D01*
X195179605Y-14000000D01*
X196847499Y-15667894D01*
X197214258Y-15451772D01*
X197454938Y-14991895D01*
X197601275Y-14493902D01*
X197647648Y-13976929D01*
X197592273Y-13460841D01*
X197437279Y-12965474D01*
X197214258Y-12548228D01*
X196847499Y-12332106D01*
X195179605Y-14000000D01*
X194820395Y-14000000D01*
X193152501Y-12332106D01*
X192785742Y-12548228D01*
X192545062Y-13008105D01*
X192398725Y-13506098D01*
X192352352Y-14023071D01*
X8643509Y-14023071D01*
X8647648Y-13976929D01*
X8592273Y-13460841D01*
X8437279Y-12965474D01*
X8214258Y-12548228D01*
X7847499Y-12332106D01*
X6179605Y-14000000D01*
X5820395Y-14000000D01*
X4152501Y-12332106D01*
X3785742Y-12548228D01*
X3545062Y-13008105D01*
X3398725Y-13506098D01*
X3352352Y-14023071D01*
X685000Y-14023071D01*
X685000Y-12152501D01*
X4332106Y-12152501D01*
X6000000Y-13820395D01*
X7667894Y-12152501D01*
X193332106Y-12152501D01*
X195000000Y-13820395D01*
X196667894Y-12152501D01*
X196451772Y-11785742D01*
X195991895Y-11545062D01*
X195493902Y-11398725D01*
X194976929Y-11352352D01*
X194460841Y-11407727D01*
X193965474Y-11562721D01*
X193548228Y-11785742D01*
X193332106Y-12152501D01*
X7667894Y-12152501D01*
X7451772Y-11785742D01*
X6991895Y-11545062D01*
X6493902Y-11398725D01*
X5976929Y-11352352D01*
X5460841Y-11407727D01*
X4965474Y-11562721D01*
X4548228Y-11785742D01*
X4332106Y-12152501D01*
X685000Y-12152501D01*
X685000Y-4245446D01*
X738519Y-4358331D01*
X1046970Y-4773424D01*
X1430475Y-5120365D01*
X1874296Y-5385822D01*
X2361377Y-5559593D01*
X2873000Y-5635000D01*
X4273000Y-5635000D01*
X4273000Y-3127000D01*
X4527000Y-3127000D01*
X4527000Y-5635000D01*
X5927000Y-5635000D01*
X6438623Y-5559593D01*
X6925704Y-5385822D01*
X7369525Y-5120365D01*
X7753030Y-4773424D01*
X8061481Y-4358331D01*
X8283025Y-3891038D01*
X8379667Y-3537162D01*
X191620333Y-3537162D01*
X191716975Y-3891038D01*
X191938519Y-4358331D01*
X192246970Y-4773424D01*
X192630475Y-5120365D01*
X193074296Y-5385822D01*
X193561377Y-5559593D01*
X194073000Y-5635000D01*
X195473000Y-5635000D01*
X195473000Y-3127000D01*
X191727009Y-3127000D01*
X191620333Y-3537162D01*
X8379667Y-3537162D01*
X8272991Y-3127000D01*
X4527000Y-3127000D01*
X4273000Y-3127000D01*
X4253000Y-3127000D01*
X4253000Y-2873000D01*
X4273000Y-2873000D01*
X4273000Y-2853000D01*
X4527000Y-2853000D01*
X4527000Y-2873000D01*
X8272991Y-2873000D01*
X8379667Y-2462838D01*
X8283025Y-2108962D01*
X8061481Y-1641669D01*
X7753030Y-1226576D01*
X7369525Y-879635D01*
X7044112Y-685000D01*
X192955888Y-685000D01*
X192630475Y-879635D01*
G04 #@! TA.AperFunction,Conductor*
D14*
G36*
X192630475Y-879635D02*
G01*
X192246970Y-1226576D01*
X191938519Y-1641669D01*
X191716975Y-2108962D01*
X191620333Y-2462838D01*
X191727009Y-2873000D01*
X195473000Y-2873000D01*
X195473000Y-2853000D01*
X195727000Y-2853000D01*
X195727000Y-2873000D01*
X195747000Y-2873000D01*
X195747000Y-3127000D01*
X195727000Y-3127000D01*
X195727000Y-5635000D01*
X197127000Y-5635000D01*
X197638623Y-5559593D01*
X198125704Y-5385822D01*
X198569525Y-5120365D01*
X198953030Y-4773424D01*
X199261481Y-4358331D01*
X199315001Y-4245444D01*
X199315000Y-195754554D01*
X199261481Y-195641669D01*
X198953030Y-195226576D01*
X198569525Y-194879635D01*
X198125704Y-194614178D01*
X197638623Y-194440407D01*
X197127000Y-194365000D01*
X195727000Y-194365000D01*
X195727000Y-196873000D01*
X195747000Y-196873000D01*
X195747000Y-197127000D01*
X195727000Y-197127000D01*
X195727000Y-197147000D01*
X195473000Y-197147000D01*
X195473000Y-197127000D01*
X191727009Y-197127000D01*
X191620333Y-197537162D01*
X191716975Y-197891038D01*
X191938519Y-198358331D01*
X192246970Y-198773424D01*
X192630475Y-199120365D01*
X192955888Y-199315000D01*
X7044112Y-199315000D01*
X7369525Y-199120365D01*
X7753030Y-198773424D01*
X8061481Y-198358331D01*
X8283025Y-197891038D01*
X8379667Y-197537162D01*
X8272991Y-197127000D01*
X4527000Y-197127000D01*
X4527000Y-197147000D01*
X4273000Y-197147000D01*
X4273000Y-197127000D01*
X4253000Y-197127000D01*
X4253000Y-196873000D01*
X4273000Y-196873000D01*
X4273000Y-194365000D01*
X4527000Y-194365000D01*
X4527000Y-196873000D01*
X8272991Y-196873000D01*
X8379667Y-196462838D01*
X191620333Y-196462838D01*
X191727009Y-196873000D01*
X195473000Y-196873000D01*
X195473000Y-194365000D01*
X194073000Y-194365000D01*
X193561377Y-194440407D01*
X193074296Y-194614178D01*
X192630475Y-194879635D01*
X192246970Y-195226576D01*
X191938519Y-195641669D01*
X191716975Y-196108962D01*
X191620333Y-196462838D01*
X8379667Y-196462838D01*
X8283025Y-196108962D01*
X8061481Y-195641669D01*
X7753030Y-195226576D01*
X7369525Y-194879635D01*
X6925704Y-194614178D01*
X6438623Y-194440407D01*
X5927000Y-194365000D01*
X4527000Y-194365000D01*
X4273000Y-194365000D01*
X2873000Y-194365000D01*
X2361377Y-194440407D01*
X1874296Y-194614178D01*
X1430475Y-194879635D01*
X1046970Y-195226576D01*
X738519Y-195641669D01*
X685000Y-195754554D01*
X685000Y-180401674D01*
X14777932Y-180401674D01*
X15593908Y-181280530D01*
X16903840Y-182019437D01*
X18332756Y-182488591D01*
X19825743Y-182669963D01*
X21325428Y-182556583D01*
X22774176Y-182152807D01*
X24116314Y-181474153D01*
X24406092Y-181280530D01*
X25222068Y-180401674D01*
X54777932Y-180401674D01*
X55593908Y-181280530D01*
X56903840Y-182019437D01*
X58332756Y-182488591D01*
X59825743Y-182669963D01*
X61325428Y-182556583D01*
X62774176Y-182152807D01*
X64116314Y-181474153D01*
X64406092Y-181280530D01*
X65222068Y-180401674D01*
X94777932Y-180401674D01*
X95593908Y-181280530D01*
X96903840Y-182019437D01*
X98332756Y-182488591D01*
X99825743Y-182669963D01*
X101325428Y-182556583D01*
X102774176Y-182152807D01*
X104116314Y-181474153D01*
X104406092Y-181280530D01*
X105222068Y-180401674D01*
X134777932Y-180401674D01*
X135593908Y-181280530D01*
X136903840Y-182019437D01*
X138332756Y-182488591D01*
X139825743Y-182669963D01*
X141325428Y-182556583D01*
X142774176Y-182152807D01*
X144116314Y-181474153D01*
X144406092Y-181280530D01*
X145222068Y-180401674D01*
X174777932Y-180401674D01*
X175593908Y-181280530D01*
X176903840Y-182019437D01*
X178332756Y-182488591D01*
X179825743Y-182669963D01*
X181325428Y-182556583D01*
X182774176Y-182152807D01*
X184116314Y-181474153D01*
X184406092Y-181280530D01*
X185222068Y-180401674D01*
X180000000Y-175179605D01*
X174777932Y-180401674D01*
X145222068Y-180401674D01*
X140000000Y-175179605D01*
X134777932Y-180401674D01*
X105222068Y-180401674D01*
X100000000Y-175179605D01*
X94777932Y-180401674D01*
X65222068Y-180401674D01*
X60000000Y-175179605D01*
X54777932Y-180401674D01*
X25222068Y-180401674D01*
X20000000Y-175179605D01*
X14777932Y-180401674D01*
X685000Y-180401674D01*
X685000Y-174825743D01*
X12330037Y-174825743D01*
X12443417Y-176325428D01*
X12847193Y-177774176D01*
X13525847Y-179116314D01*
X13719470Y-179406092D01*
X14598326Y-180222068D01*
X19820395Y-175000000D01*
X20179605Y-175000000D01*
X25401674Y-180222068D01*
X26280530Y-179406092D01*
X27019437Y-178096160D01*
X27488591Y-176667244D01*
X27669963Y-175174257D01*
X27643615Y-174825743D01*
X52330037Y-174825743D01*
X52443417Y-176325428D01*
X52847193Y-177774176D01*
X53525847Y-179116314D01*
X53719470Y-179406092D01*
X54598326Y-180222068D01*
X59820395Y-175000000D01*
X60179605Y-175000000D01*
X65401674Y-180222068D01*
X66280530Y-179406092D01*
X67019437Y-178096160D01*
X67488591Y-176667244D01*
X67669963Y-175174257D01*
X67643615Y-174825743D01*
X92330037Y-174825743D01*
X92443417Y-176325428D01*
X92847193Y-177774176D01*
X93525847Y-179116314D01*
X93719470Y-179406092D01*
X94598326Y-180222068D01*
X99820395Y-175000000D01*
X100179605Y-175000000D01*
X105401674Y-180222068D01*
X106280530Y-179406092D01*
X107019437Y-178096160D01*
X107488591Y-176667244D01*
X107669963Y-175174257D01*
X107643615Y-174825743D01*
X132330037Y-174825743D01*
X132443417Y-176325428D01*
X132847193Y-177774176D01*
X133525847Y-179116314D01*
X133719470Y-179406092D01*
X134598326Y-180222068D01*
X139820395Y-175000000D01*
X140179605Y-175000000D01*
X145401674Y-180222068D01*
X146280530Y-179406092D01*
X147019437Y-178096160D01*
X147488591Y-176667244D01*
X147669963Y-175174257D01*
X147643615Y-174825743D01*
X172330037Y-174825743D01*
X172443417Y-176325428D01*
X172847193Y-177774176D01*
X173525847Y-179116314D01*
X173719470Y-179406092D01*
X174598326Y-180222068D01*
X179820395Y-175000000D01*
X180179605Y-175000000D01*
X185401674Y-180222068D01*
X186280530Y-179406092D01*
X187019437Y-178096160D01*
X187488591Y-176667244D01*
X187669963Y-175174257D01*
X187556583Y-173674572D01*
X187152807Y-172225824D01*
X186474153Y-170883686D01*
X186280530Y-170593908D01*
X185401674Y-169777932D01*
X180179605Y-175000000D01*
X179820395Y-175000000D01*
X174598326Y-169777932D01*
X173719470Y-170593908D01*
X172980563Y-171903840D01*
X172511409Y-173332756D01*
X172330037Y-174825743D01*
X147643615Y-174825743D01*
X147556583Y-173674572D01*
X147152807Y-172225824D01*
X146474153Y-170883686D01*
X146280530Y-170593908D01*
X145401674Y-169777932D01*
X140179605Y-175000000D01*
X139820395Y-175000000D01*
X134598326Y-169777932D01*
X133719470Y-170593908D01*
X132980563Y-171903840D01*
X132511409Y-173332756D01*
X132330037Y-174825743D01*
X107643615Y-174825743D01*
X107556583Y-173674572D01*
X107152807Y-172225824D01*
X106474153Y-170883686D01*
X106280530Y-170593908D01*
X105401674Y-169777932D01*
X100179605Y-175000000D01*
X99820395Y-175000000D01*
X94598326Y-169777932D01*
X93719470Y-170593908D01*
X92980563Y-171903840D01*
X92511409Y-173332756D01*
X92330037Y-174825743D01*
X67643615Y-174825743D01*
X67556583Y-173674572D01*
X67152807Y-172225824D01*
X66474153Y-170883686D01*
X66280530Y-170593908D01*
X65401674Y-169777932D01*
X60179605Y-175000000D01*
X59820395Y-175000000D01*
X54598326Y-169777932D01*
X53719470Y-170593908D01*
X52980563Y-171903840D01*
X52511409Y-173332756D01*
X52330037Y-174825743D01*
X27643615Y-174825743D01*
X27556583Y-173674572D01*
X27152807Y-172225824D01*
X26474153Y-170883686D01*
X26280530Y-170593908D01*
X25401674Y-169777932D01*
X20179605Y-175000000D01*
X19820395Y-175000000D01*
X14598326Y-169777932D01*
X13719470Y-170593908D01*
X12980563Y-171903840D01*
X12511409Y-173332756D01*
X12330037Y-174825743D01*
X685000Y-174825743D01*
X685000Y-169598326D01*
X14777932Y-169598326D01*
X20000000Y-174820395D01*
X25222068Y-169598326D01*
X54777932Y-169598326D01*
X60000000Y-174820395D01*
X65222068Y-169598326D01*
X94777932Y-169598326D01*
X100000000Y-174820395D01*
X105222068Y-169598326D01*
X134777932Y-169598326D01*
X140000000Y-174820395D01*
X145222068Y-169598326D01*
X174777932Y-169598326D01*
X180000000Y-174820395D01*
X185222068Y-169598326D01*
X184406092Y-168719470D01*
X183096160Y-167980563D01*
X181667244Y-167511409D01*
X180174257Y-167330037D01*
X178674572Y-167443417D01*
X177225824Y-167847193D01*
X175883686Y-168525847D01*
X175593908Y-168719470D01*
X174777932Y-169598326D01*
X145222068Y-169598326D01*
X144406092Y-168719470D01*
X143096160Y-167980563D01*
X141667244Y-167511409D01*
X140174257Y-167330037D01*
X138674572Y-167443417D01*
X137225824Y-167847193D01*
X135883686Y-168525847D01*
X135593908Y-168719470D01*
X134777932Y-169598326D01*
X105222068Y-169598326D01*
X104406092Y-168719470D01*
X103096160Y-167980563D01*
X101667244Y-167511409D01*
X100174257Y-167330037D01*
X98674572Y-167443417D01*
X97225824Y-167847193D01*
X95883686Y-168525847D01*
X95593908Y-168719470D01*
X94777932Y-169598326D01*
X65222068Y-169598326D01*
X64406092Y-168719470D01*
X63096160Y-167980563D01*
X61667244Y-167511409D01*
X60174257Y-167330037D01*
X58674572Y-167443417D01*
X57225824Y-167847193D01*
X55883686Y-168525847D01*
X55593908Y-168719470D01*
X54777932Y-169598326D01*
X25222068Y-169598326D01*
X24406092Y-168719470D01*
X23096160Y-167980563D01*
X21667244Y-167511409D01*
X20174257Y-167330037D01*
X18674572Y-167443417D01*
X17225824Y-167847193D01*
X15883686Y-168525847D01*
X15593908Y-168719470D01*
X14777932Y-169598326D01*
X685000Y-169598326D01*
X685000Y-54000000D01*
X7511686Y-54000000D01*
X7515001Y-54033657D01*
X7515000Y-119966353D01*
X7511686Y-120000000D01*
X7524912Y-120134283D01*
X7564081Y-120263406D01*
X7627688Y-120382407D01*
X7713289Y-120486711D01*
X7817593Y-120572312D01*
X7936594Y-120635919D01*
X8065717Y-120675088D01*
X8200000Y-120688314D01*
X8233647Y-120685000D01*
X9766353Y-120685000D01*
X9800000Y-120688314D01*
X9934283Y-120675088D01*
X10063406Y-120635919D01*
X10182407Y-120572312D01*
X10286711Y-120486711D01*
X10372312Y-120382407D01*
X10435919Y-120263406D01*
X10475088Y-120134283D01*
X10485000Y-120033647D01*
X10485000Y-120033646D01*
X10488314Y-120000000D01*
X10485000Y-119966353D01*
X10485000Y-54033647D01*
X10488314Y-54000000D01*
X21511686Y-54000000D01*
X21515001Y-54033657D01*
X21515000Y-119966353D01*
X21511686Y-120000000D01*
X21524912Y-120134283D01*
X21564081Y-120263406D01*
X21627688Y-120382407D01*
X21713289Y-120486711D01*
X21817593Y-120572312D01*
X21936594Y-120635919D01*
X22065717Y-120675088D01*
X22200000Y-120688314D01*
X22233647Y-120685000D01*
X23766353Y-120685000D01*
X23800000Y-120688314D01*
X23934283Y-120675088D01*
X24063406Y-120635919D01*
X24182407Y-120572312D01*
X24286711Y-120486711D01*
X24372312Y-120382407D01*
X24435919Y-120263406D01*
X24475088Y-120134283D01*
X24485000Y-120033647D01*
X24485000Y-120033646D01*
X24488314Y-120000000D01*
X24485000Y-119966353D01*
X24485000Y-54033647D01*
X24488314Y-54000000D01*
X35511686Y-54000000D01*
X35515001Y-54033657D01*
X35515000Y-119966353D01*
X35511686Y-120000000D01*
X35524912Y-120134283D01*
X35564081Y-120263406D01*
X35627688Y-120382407D01*
X35713289Y-120486711D01*
X35817593Y-120572312D01*
X35936594Y-120635919D01*
X36065717Y-120675088D01*
X36200000Y-120688314D01*
X36233647Y-120685000D01*
X37766353Y-120685000D01*
X37800000Y-120688314D01*
X37934283Y-120675088D01*
X38063406Y-120635919D01*
X38182407Y-120572312D01*
X38286711Y-120486711D01*
X38372312Y-120382407D01*
X38435919Y-120263406D01*
X38475088Y-120134283D01*
X38485000Y-120033647D01*
X38485000Y-120033646D01*
X38488314Y-120000000D01*
X38485000Y-119966353D01*
X38485000Y-54033647D01*
X38488314Y-54000000D01*
X49511686Y-54000000D01*
X49515001Y-54033657D01*
X49515000Y-119966353D01*
X49511686Y-120000000D01*
X49524912Y-120134283D01*
X49564081Y-120263406D01*
X49627688Y-120382407D01*
X49713289Y-120486711D01*
X49817593Y-120572312D01*
X49936594Y-120635919D01*
X50065717Y-120675088D01*
X50200000Y-120688314D01*
X50233647Y-120685000D01*
X51766353Y-120685000D01*
X51800000Y-120688314D01*
X51934283Y-120675088D01*
X52063406Y-120635919D01*
X52182407Y-120572312D01*
X52286711Y-120486711D01*
X52372312Y-120382407D01*
X52435919Y-120263406D01*
X52475088Y-120134283D01*
X52485000Y-120033647D01*
X52485000Y-120033646D01*
X52488314Y-120000000D01*
X52485000Y-119966353D01*
X52485000Y-54033647D01*
X52488314Y-54000000D01*
X63511686Y-54000000D01*
X63515001Y-54033657D01*
X63515000Y-119966353D01*
X63511686Y-120000000D01*
X63524912Y-120134283D01*
X63564081Y-120263406D01*
X63627688Y-120382407D01*
X63713289Y-120486711D01*
X63817593Y-120572312D01*
X63936594Y-120635919D01*
X64065717Y-120675088D01*
X64200000Y-120688314D01*
X64233647Y-120685000D01*
X65766353Y-120685000D01*
X65800000Y-120688314D01*
X65934283Y-120675088D01*
X66063406Y-120635919D01*
X66182407Y-120572312D01*
X66286711Y-120486711D01*
X66372312Y-120382407D01*
X66435919Y-120263406D01*
X66475088Y-120134283D01*
X66485000Y-120033647D01*
X66485000Y-120033646D01*
X66488314Y-120000000D01*
X66485000Y-119966353D01*
X66485000Y-54033647D01*
X66488314Y-54000000D01*
X77511686Y-54000000D01*
X77515001Y-54033657D01*
X77515000Y-119966353D01*
X77511686Y-120000000D01*
X77524912Y-120134283D01*
X77564081Y-120263406D01*
X77627688Y-120382407D01*
X77713289Y-120486711D01*
X77817593Y-120572312D01*
X77936594Y-120635919D01*
X78065717Y-120675088D01*
X78200000Y-120688314D01*
X78233647Y-120685000D01*
X79766353Y-120685000D01*
X79800000Y-120688314D01*
X79934283Y-120675088D01*
X80063406Y-120635919D01*
X80182407Y-120572312D01*
X80286711Y-120486711D01*
X80372312Y-120382407D01*
X80435919Y-120263406D01*
X80475088Y-120134283D01*
X80485000Y-120033647D01*
X80485000Y-120033646D01*
X80488314Y-120000000D01*
X80485000Y-119966353D01*
X80485000Y-54033647D01*
X80488314Y-54000000D01*
X91511686Y-54000000D01*
X91515001Y-54033657D01*
X91515000Y-119966353D01*
X91511686Y-120000000D01*
X91524912Y-120134283D01*
X91564081Y-120263406D01*
X91627688Y-120382407D01*
X91713289Y-120486711D01*
X91817593Y-120572312D01*
X91936594Y-120635919D01*
X92065717Y-120675088D01*
X92200000Y-120688314D01*
X92233647Y-120685000D01*
X93766353Y-120685000D01*
X93800000Y-120688314D01*
X93934283Y-120675088D01*
X94063406Y-120635919D01*
X94182407Y-120572312D01*
X94286711Y-120486711D01*
X94372312Y-120382407D01*
X94435919Y-120263406D01*
X94475088Y-120134283D01*
X94485000Y-120033647D01*
X94485000Y-120033646D01*
X94488314Y-120000000D01*
X94485000Y-119966353D01*
X94485000Y-54033647D01*
X94488314Y-54000000D01*
X105511686Y-54000000D01*
X105515001Y-54033657D01*
X105515000Y-119966353D01*
X105511686Y-120000000D01*
X105524912Y-120134283D01*
X105564081Y-120263406D01*
X105627688Y-120382407D01*
X105713289Y-120486711D01*
X105817593Y-120572312D01*
X105936594Y-120635919D01*
X106065717Y-120675088D01*
X106200000Y-120688314D01*
X106233647Y-120685000D01*
X107766353Y-120685000D01*
X107800000Y-120688314D01*
X107934283Y-120675088D01*
X108063406Y-120635919D01*
X108182407Y-120572312D01*
X108286711Y-120486711D01*
X108372312Y-120382407D01*
X108435919Y-120263406D01*
X108475088Y-120134283D01*
X108485000Y-120033647D01*
X108485000Y-120033646D01*
X108488314Y-120000000D01*
X108485000Y-119966353D01*
X108485000Y-54033647D01*
X108488314Y-54000000D01*
X119511686Y-54000000D01*
X119515001Y-54033657D01*
X119515000Y-119966353D01*
X119511686Y-120000000D01*
X119524912Y-120134283D01*
X119564081Y-120263406D01*
X119627688Y-120382407D01*
X119713289Y-120486711D01*
X119817593Y-120572312D01*
X119936594Y-120635919D01*
X120065717Y-120675088D01*
X120200000Y-120688314D01*
X120233647Y-120685000D01*
X121766353Y-120685000D01*
X121800000Y-120688314D01*
X121934283Y-120675088D01*
X122063406Y-120635919D01*
X122182407Y-120572312D01*
X122286711Y-120486711D01*
X122372312Y-120382407D01*
X122435919Y-120263406D01*
X122475088Y-120134283D01*
X122485000Y-120033647D01*
X122485000Y-120033646D01*
X122488314Y-120000000D01*
X122485000Y-119966353D01*
X122485000Y-54033647D01*
X122488314Y-54000000D01*
X133511686Y-54000000D01*
X133515001Y-54033657D01*
X133515000Y-119966353D01*
X133511686Y-120000000D01*
X133524912Y-120134283D01*
X133564081Y-120263406D01*
X133627688Y-120382407D01*
X133713289Y-120486711D01*
X133817593Y-120572312D01*
X133936594Y-120635919D01*
X134065717Y-120675088D01*
X134200000Y-120688314D01*
X134233647Y-120685000D01*
X135766353Y-120685000D01*
X135800000Y-120688314D01*
X135934283Y-120675088D01*
X136063406Y-120635919D01*
X136182407Y-120572312D01*
X136286711Y-120486711D01*
X136372312Y-120382407D01*
X136435919Y-120263406D01*
X136475088Y-120134283D01*
X136485000Y-120033647D01*
X136485000Y-120033646D01*
X136488314Y-120000000D01*
X136485000Y-119966353D01*
X136485000Y-54033647D01*
X136488314Y-54000000D01*
X147511686Y-54000000D01*
X147515001Y-54033657D01*
X147515000Y-119966353D01*
X147511686Y-120000000D01*
X147524912Y-120134283D01*
X147564081Y-120263406D01*
X147627688Y-120382407D01*
X147713289Y-120486711D01*
X147817593Y-120572312D01*
X147936594Y-120635919D01*
X148065717Y-120675088D01*
X148200000Y-120688314D01*
X148233647Y-120685000D01*
X149766353Y-120685000D01*
X149800000Y-120688314D01*
X149934283Y-120675088D01*
X150063406Y-120635919D01*
X150182407Y-120572312D01*
X150286711Y-120486711D01*
X150372312Y-120382407D01*
X150435919Y-120263406D01*
X150475088Y-120134283D01*
X150485000Y-120033647D01*
X150485000Y-120033646D01*
X150488314Y-120000000D01*
X150485000Y-119966353D01*
X150485000Y-54033647D01*
X150488314Y-54000000D01*
X161511686Y-54000000D01*
X161515001Y-54033657D01*
X161515000Y-119966353D01*
X161511686Y-120000000D01*
X161524912Y-120134283D01*
X161564081Y-120263406D01*
X161627688Y-120382407D01*
X161713289Y-120486711D01*
X161817593Y-120572312D01*
X161936594Y-120635919D01*
X162065717Y-120675088D01*
X162200000Y-120688314D01*
X162233647Y-120685000D01*
X163766353Y-120685000D01*
X163800000Y-120688314D01*
X163934283Y-120675088D01*
X164063406Y-120635919D01*
X164182407Y-120572312D01*
X164286711Y-120486711D01*
X164372312Y-120382407D01*
X164435919Y-120263406D01*
X164475088Y-120134283D01*
X164485000Y-120033647D01*
X164485000Y-120033646D01*
X164488314Y-120000000D01*
X164485000Y-119966353D01*
X164485000Y-54033647D01*
X164488314Y-54000000D01*
X175511686Y-54000000D01*
X175515001Y-54033657D01*
X175515000Y-119966353D01*
X175511686Y-120000000D01*
X175524912Y-120134283D01*
X175564081Y-120263406D01*
X175627688Y-120382407D01*
X175713289Y-120486711D01*
X175817593Y-120572312D01*
X175936594Y-120635919D01*
X176065717Y-120675088D01*
X176200000Y-120688314D01*
X176233647Y-120685000D01*
X177766353Y-120685000D01*
X177800000Y-120688314D01*
X177934283Y-120675088D01*
X178063406Y-120635919D01*
X178182407Y-120572312D01*
X178286711Y-120486711D01*
X178372312Y-120382407D01*
X178435919Y-120263406D01*
X178475088Y-120134283D01*
X178485000Y-120033647D01*
X178485000Y-120033646D01*
X178488314Y-120000000D01*
X178485000Y-119966353D01*
X178485000Y-54033647D01*
X178488314Y-54000000D01*
X189511686Y-54000000D01*
X189515001Y-54033657D01*
X189515000Y-119966353D01*
X189511686Y-120000000D01*
X189524912Y-120134283D01*
X189564081Y-120263406D01*
X189627688Y-120382407D01*
X189713289Y-120486711D01*
X189817593Y-120572312D01*
X189936594Y-120635919D01*
X190065717Y-120675088D01*
X190200000Y-120688314D01*
X190233647Y-120685000D01*
X191766353Y-120685000D01*
X191800000Y-120688314D01*
X191934283Y-120675088D01*
X192063406Y-120635919D01*
X192182407Y-120572312D01*
X192286711Y-120486711D01*
X192372312Y-120382407D01*
X192435919Y-120263406D01*
X192475088Y-120134283D01*
X192485000Y-120033647D01*
X192485000Y-120033646D01*
X192488314Y-120000000D01*
X192485000Y-119966353D01*
X192485000Y-54033647D01*
X192488314Y-54000000D01*
X192475088Y-53865717D01*
X192435919Y-53736594D01*
X192372312Y-53617593D01*
X192286711Y-53513289D01*
X192182407Y-53427688D01*
X192063406Y-53364081D01*
X191934283Y-53324912D01*
X191833647Y-53315000D01*
X191800000Y-53311686D01*
X191766353Y-53315000D01*
X190233647Y-53315000D01*
X190200000Y-53311686D01*
X190166353Y-53315000D01*
X190065717Y-53324912D01*
X189936594Y-53364081D01*
X189817593Y-53427688D01*
X189713289Y-53513289D01*
X189627688Y-53617593D01*
X189564081Y-53736594D01*
X189524912Y-53865717D01*
X189511686Y-54000000D01*
X178488314Y-54000000D01*
X178475088Y-53865717D01*
X178435919Y-53736594D01*
X178372312Y-53617593D01*
X178286711Y-53513289D01*
X178182407Y-53427688D01*
X178063406Y-53364081D01*
X177934283Y-53324912D01*
X177833647Y-53315000D01*
X177800000Y-53311686D01*
X177766353Y-53315000D01*
X176233647Y-53315000D01*
X176200000Y-53311686D01*
X176166353Y-53315000D01*
X176065717Y-53324912D01*
X175936594Y-53364081D01*
X175817593Y-53427688D01*
X175713289Y-53513289D01*
X175627688Y-53617593D01*
X175564081Y-53736594D01*
X175524912Y-53865717D01*
X175511686Y-54000000D01*
X164488314Y-54000000D01*
X164475088Y-53865717D01*
X164435919Y-53736594D01*
X164372312Y-53617593D01*
X164286711Y-53513289D01*
X164182407Y-53427688D01*
X164063406Y-53364081D01*
X163934283Y-53324912D01*
X163833647Y-53315000D01*
X163800000Y-53311686D01*
X163766353Y-53315000D01*
X162233647Y-53315000D01*
X162200000Y-53311686D01*
X162166353Y-53315000D01*
X162065717Y-53324912D01*
X161936594Y-53364081D01*
X161817593Y-53427688D01*
X161713289Y-53513289D01*
X161627688Y-53617593D01*
X161564081Y-53736594D01*
X161524912Y-53865717D01*
X161511686Y-54000000D01*
X150488314Y-54000000D01*
X150475088Y-53865717D01*
X150435919Y-53736594D01*
X150372312Y-53617593D01*
X150286711Y-53513289D01*
X150182407Y-53427688D01*
X150063406Y-53364081D01*
X149934283Y-53324912D01*
X149833647Y-53315000D01*
X149800000Y-53311686D01*
X149766353Y-53315000D01*
X148233647Y-53315000D01*
X148200000Y-53311686D01*
X148166353Y-53315000D01*
X148065717Y-53324912D01*
X147936594Y-53364081D01*
X147817593Y-53427688D01*
X147713289Y-53513289D01*
X147627688Y-53617593D01*
X147564081Y-53736594D01*
X147524912Y-53865717D01*
X147511686Y-54000000D01*
X136488314Y-54000000D01*
X136475088Y-53865717D01*
X136435919Y-53736594D01*
X136372312Y-53617593D01*
X136286711Y-53513289D01*
X136182407Y-53427688D01*
X136063406Y-53364081D01*
X135934283Y-53324912D01*
X135833647Y-53315000D01*
X135800000Y-53311686D01*
X135766353Y-53315000D01*
X134233647Y-53315000D01*
X134200000Y-53311686D01*
X134166353Y-53315000D01*
X134065717Y-53324912D01*
X133936594Y-53364081D01*
X133817593Y-53427688D01*
X133713289Y-53513289D01*
X133627688Y-53617593D01*
X133564081Y-53736594D01*
X133524912Y-53865717D01*
X133511686Y-54000000D01*
X122488314Y-54000000D01*
X122475088Y-53865717D01*
X122435919Y-53736594D01*
X122372312Y-53617593D01*
X122286711Y-53513289D01*
X122182407Y-53427688D01*
X122063406Y-53364081D01*
X121934283Y-53324912D01*
X121833647Y-53315000D01*
X121800000Y-53311686D01*
X121766353Y-53315000D01*
X120233647Y-53315000D01*
X120200000Y-53311686D01*
X120166353Y-53315000D01*
X120065717Y-53324912D01*
X119936594Y-53364081D01*
X119817593Y-53427688D01*
X119713289Y-53513289D01*
X119627688Y-53617593D01*
X119564081Y-53736594D01*
X119524912Y-53865717D01*
X119511686Y-54000000D01*
X108488314Y-54000000D01*
X108475088Y-53865717D01*
X108435919Y-53736594D01*
X108372312Y-53617593D01*
X108286711Y-53513289D01*
X108182407Y-53427688D01*
X108063406Y-53364081D01*
X107934283Y-53324912D01*
X107833647Y-53315000D01*
X107800000Y-53311686D01*
X107766353Y-53315000D01*
X106233647Y-53315000D01*
X106200000Y-53311686D01*
X106166353Y-53315000D01*
X106065717Y-53324912D01*
X105936594Y-53364081D01*
X105817593Y-53427688D01*
X105713289Y-53513289D01*
X105627688Y-53617593D01*
X105564081Y-53736594D01*
X105524912Y-53865717D01*
X105511686Y-54000000D01*
X94488314Y-54000000D01*
X94475088Y-53865717D01*
X94435919Y-53736594D01*
X94372312Y-53617593D01*
X94286711Y-53513289D01*
X94182407Y-53427688D01*
X94063406Y-53364081D01*
X93934283Y-53324912D01*
X93833647Y-53315000D01*
X93800000Y-53311686D01*
X93766353Y-53315000D01*
X92233647Y-53315000D01*
X92200000Y-53311686D01*
X92166353Y-53315000D01*
X92065717Y-53324912D01*
X91936594Y-53364081D01*
X91817593Y-53427688D01*
X91713289Y-53513289D01*
X91627688Y-53617593D01*
X91564081Y-53736594D01*
X91524912Y-53865717D01*
X91511686Y-54000000D01*
X80488314Y-54000000D01*
X80475088Y-53865717D01*
X80435919Y-53736594D01*
X80372312Y-53617593D01*
X80286711Y-53513289D01*
X80182407Y-53427688D01*
X80063406Y-53364081D01*
X79934283Y-53324912D01*
X79833647Y-53315000D01*
X79800000Y-53311686D01*
X79766353Y-53315000D01*
X78233647Y-53315000D01*
X78200000Y-53311686D01*
X78166353Y-53315000D01*
X78065717Y-53324912D01*
X77936594Y-53364081D01*
X77817593Y-53427688D01*
X77713289Y-53513289D01*
X77627688Y-53617593D01*
X77564081Y-53736594D01*
X77524912Y-53865717D01*
X77511686Y-54000000D01*
X66488314Y-54000000D01*
X66475088Y-53865717D01*
X66435919Y-53736594D01*
X66372312Y-53617593D01*
X66286711Y-53513289D01*
X66182407Y-53427688D01*
X66063406Y-53364081D01*
X65934283Y-53324912D01*
X65833647Y-53315000D01*
X65800000Y-53311686D01*
X65766353Y-53315000D01*
X64233647Y-53315000D01*
X64200000Y-53311686D01*
X64166353Y-53315000D01*
X64065717Y-53324912D01*
X63936594Y-53364081D01*
X63817593Y-53427688D01*
X63713289Y-53513289D01*
X63627688Y-53617593D01*
X63564081Y-53736594D01*
X63524912Y-53865717D01*
X63511686Y-54000000D01*
X52488314Y-54000000D01*
X52475088Y-53865717D01*
X52435919Y-53736594D01*
X52372312Y-53617593D01*
X52286711Y-53513289D01*
X52182407Y-53427688D01*
X52063406Y-53364081D01*
X51934283Y-53324912D01*
X51833647Y-53315000D01*
X51800000Y-53311686D01*
X51766353Y-53315000D01*
X50233647Y-53315000D01*
X50200000Y-53311686D01*
X50166353Y-53315000D01*
X50065717Y-53324912D01*
X49936594Y-53364081D01*
X49817593Y-53427688D01*
X49713289Y-53513289D01*
X49627688Y-53617593D01*
X49564081Y-53736594D01*
X49524912Y-53865717D01*
X49511686Y-54000000D01*
X38488314Y-54000000D01*
X38475088Y-53865717D01*
X38435919Y-53736594D01*
X38372312Y-53617593D01*
X38286711Y-53513289D01*
X38182407Y-53427688D01*
X38063406Y-53364081D01*
X37934283Y-53324912D01*
X37833647Y-53315000D01*
X37800000Y-53311686D01*
X37766353Y-53315000D01*
X36233647Y-53315000D01*
X36200000Y-53311686D01*
X36166353Y-53315000D01*
X36065717Y-53324912D01*
X35936594Y-53364081D01*
X35817593Y-53427688D01*
X35713289Y-53513289D01*
X35627688Y-53617593D01*
X35564081Y-53736594D01*
X35524912Y-53865717D01*
X35511686Y-54000000D01*
X24488314Y-54000000D01*
X24475088Y-53865717D01*
X24435919Y-53736594D01*
X24372312Y-53617593D01*
X24286711Y-53513289D01*
X24182407Y-53427688D01*
X24063406Y-53364081D01*
X23934283Y-53324912D01*
X23833647Y-53315000D01*
X23800000Y-53311686D01*
X23766353Y-53315000D01*
X22233647Y-53315000D01*
X22200000Y-53311686D01*
X22166353Y-53315000D01*
X22065717Y-53324912D01*
X21936594Y-53364081D01*
X21817593Y-53427688D01*
X21713289Y-53513289D01*
X21627688Y-53617593D01*
X21564081Y-53736594D01*
X21524912Y-53865717D01*
X21511686Y-54000000D01*
X10488314Y-54000000D01*
X10475088Y-53865717D01*
X10435919Y-53736594D01*
X10372312Y-53617593D01*
X10286711Y-53513289D01*
X10182407Y-53427688D01*
X10063406Y-53364081D01*
X9934283Y-53324912D01*
X9833647Y-53315000D01*
X9800000Y-53311686D01*
X9766353Y-53315000D01*
X8233647Y-53315000D01*
X8200000Y-53311686D01*
X8166353Y-53315000D01*
X8065717Y-53324912D01*
X7936594Y-53364081D01*
X7817593Y-53427688D01*
X7713289Y-53513289D01*
X7627688Y-53617593D01*
X7564081Y-53736594D01*
X7524912Y-53865717D01*
X7511686Y-54000000D01*
X685000Y-54000000D01*
X685000Y-15847499D01*
X4332106Y-15847499D01*
X4548228Y-16214258D01*
X5008105Y-16454938D01*
X5506098Y-16601275D01*
X6023071Y-16647648D01*
X6539159Y-16592273D01*
X7034526Y-16437279D01*
X7451772Y-16214258D01*
X7667894Y-15847499D01*
X193332106Y-15847499D01*
X193548228Y-16214258D01*
X194008105Y-16454938D01*
X194506098Y-16601275D01*
X195023071Y-16647648D01*
X195539159Y-16592273D01*
X196034526Y-16437279D01*
X196451772Y-16214258D01*
X196667894Y-15847499D01*
X195000000Y-14179605D01*
X193332106Y-15847499D01*
X7667894Y-15847499D01*
X6000000Y-14179605D01*
X4332106Y-15847499D01*
X685000Y-15847499D01*
X685000Y-14023071D01*
X3352352Y-14023071D01*
X3407727Y-14539159D01*
X3562721Y-15034526D01*
X3785742Y-15451772D01*
X4152501Y-15667894D01*
X5820395Y-14000000D01*
X6179605Y-14000000D01*
X7847499Y-15667894D01*
X8214258Y-15451772D01*
X8454938Y-14991895D01*
X8601275Y-14493902D01*
X8643509Y-14023071D01*
X192352352Y-14023071D01*
X192407727Y-14539159D01*
X192562721Y-15034526D01*
X192785742Y-15451772D01*
X193152501Y-15667894D01*
X194820395Y-14000000D01*
X195179605Y-14000000D01*
X196847499Y-15667894D01*
X197214258Y-15451772D01*
X197454938Y-14991895D01*
X197601275Y-14493902D01*
X197647648Y-13976929D01*
X197592273Y-13460841D01*
X197437279Y-12965474D01*
X197214258Y-12548228D01*
X196847499Y-12332106D01*
X195179605Y-14000000D01*
X194820395Y-14000000D01*
X193152501Y-12332106D01*
X192785742Y-12548228D01*
X192545062Y-13008105D01*
X192398725Y-13506098D01*
X192352352Y-14023071D01*
X8643509Y-14023071D01*
X8647648Y-13976929D01*
X8592273Y-13460841D01*
X8437279Y-12965474D01*
X8214258Y-12548228D01*
X7847499Y-12332106D01*
X6179605Y-14000000D01*
X5820395Y-14000000D01*
X4152501Y-12332106D01*
X3785742Y-12548228D01*
X3545062Y-13008105D01*
X3398725Y-13506098D01*
X3352352Y-14023071D01*
X685000Y-14023071D01*
X685000Y-12152501D01*
X4332106Y-12152501D01*
X6000000Y-13820395D01*
X7667894Y-12152501D01*
X193332106Y-12152501D01*
X195000000Y-13820395D01*
X196667894Y-12152501D01*
X196451772Y-11785742D01*
X195991895Y-11545062D01*
X195493902Y-11398725D01*
X194976929Y-11352352D01*
X194460841Y-11407727D01*
X193965474Y-11562721D01*
X193548228Y-11785742D01*
X193332106Y-12152501D01*
X7667894Y-12152501D01*
X7451772Y-11785742D01*
X6991895Y-11545062D01*
X6493902Y-11398725D01*
X5976929Y-11352352D01*
X5460841Y-11407727D01*
X4965474Y-11562721D01*
X4548228Y-11785742D01*
X4332106Y-12152501D01*
X685000Y-12152501D01*
X685000Y-4245446D01*
X738519Y-4358331D01*
X1046970Y-4773424D01*
X1430475Y-5120365D01*
X1874296Y-5385822D01*
X2361377Y-5559593D01*
X2873000Y-5635000D01*
X4273000Y-5635000D01*
X4273000Y-3127000D01*
X4527000Y-3127000D01*
X4527000Y-5635000D01*
X5927000Y-5635000D01*
X6438623Y-5559593D01*
X6925704Y-5385822D01*
X7369525Y-5120365D01*
X7753030Y-4773424D01*
X8061481Y-4358331D01*
X8283025Y-3891038D01*
X8379667Y-3537162D01*
X191620333Y-3537162D01*
X191716975Y-3891038D01*
X191938519Y-4358331D01*
X192246970Y-4773424D01*
X192630475Y-5120365D01*
X193074296Y-5385822D01*
X193561377Y-5559593D01*
X194073000Y-5635000D01*
X195473000Y-5635000D01*
X195473000Y-3127000D01*
X191727009Y-3127000D01*
X191620333Y-3537162D01*
X8379667Y-3537162D01*
X8272991Y-3127000D01*
X4527000Y-3127000D01*
X4273000Y-3127000D01*
X4253000Y-3127000D01*
X4253000Y-2873000D01*
X4273000Y-2873000D01*
X4273000Y-2853000D01*
X4527000Y-2853000D01*
X4527000Y-2873000D01*
X8272991Y-2873000D01*
X8379667Y-2462838D01*
X8283025Y-2108962D01*
X8061481Y-1641669D01*
X7753030Y-1226576D01*
X7369525Y-879635D01*
X7044112Y-685000D01*
X192955888Y-685000D01*
X192630475Y-879635D01*
G37*
G04 #@! TD.AperFunction*
M02*
