G04 #@! TF.GenerationSoftware,KiCad,Pcbnew,5.1.10-88a1d61d58~90~ubuntu20.04.1*
G04 #@! TF.CreationDate,2021-09-22T19:39:52-04:00*
G04 #@! TF.ProjectId,ysFFB-panel,79734646-422d-4706-916e-656c2e6b6963,rev?*
G04 #@! TF.SameCoordinates,Original*
G04 #@! TF.FileFunction,Legend,Bot*
G04 #@! TF.FilePolarity,Positive*
%FSLAX46Y46*%
G04 Gerber Fmt 4.6, Leading zero omitted, Abs format (unit mm)*
G04 Created by KiCad (PCBNEW 5.1.10-88a1d61d58~90~ubuntu20.04.1) date 2021-09-22 19:39:52*
%MOMM*%
%LPD*%
G01*
G04 APERTURE LIST*
%ADD10C,0.150000*%
%ADD11C,0.010000*%
G04 APERTURE END LIST*
D10*
X111000000Y-189802380D02*
X111000000Y-188802380D01*
X110619047Y-188802380D01*
X110523809Y-188850000D01*
X110476190Y-188897619D01*
X110428571Y-188992857D01*
X110428571Y-189135714D01*
X110476190Y-189230952D01*
X110523809Y-189278571D01*
X110619047Y-189326190D01*
X111000000Y-189326190D01*
X109571428Y-189802380D02*
X109571428Y-189278571D01*
X109619047Y-189183333D01*
X109714285Y-189135714D01*
X109904761Y-189135714D01*
X110000000Y-189183333D01*
X109571428Y-189754761D02*
X109666666Y-189802380D01*
X109904761Y-189802380D01*
X110000000Y-189754761D01*
X110047619Y-189659523D01*
X110047619Y-189564285D01*
X110000000Y-189469047D01*
X109904761Y-189421428D01*
X109666666Y-189421428D01*
X109571428Y-189373809D01*
X109095238Y-189135714D02*
X109095238Y-189802380D01*
X109095238Y-189230952D02*
X109047619Y-189183333D01*
X108952380Y-189135714D01*
X108809523Y-189135714D01*
X108714285Y-189183333D01*
X108666666Y-189278571D01*
X108666666Y-189802380D01*
X107809523Y-189754761D02*
X107904761Y-189802380D01*
X108095238Y-189802380D01*
X108190476Y-189754761D01*
X108238095Y-189659523D01*
X108238095Y-189278571D01*
X108190476Y-189183333D01*
X108095238Y-189135714D01*
X107904761Y-189135714D01*
X107809523Y-189183333D01*
X107761904Y-189278571D01*
X107761904Y-189373809D01*
X108238095Y-189469047D01*
X107190476Y-189802380D02*
X107285714Y-189754761D01*
X107333333Y-189659523D01*
X107333333Y-188802380D01*
X105619047Y-189802380D02*
X105619047Y-188802380D01*
X105619047Y-189754761D02*
X105714285Y-189802380D01*
X105904761Y-189802380D01*
X106000000Y-189754761D01*
X106047619Y-189707142D01*
X106095238Y-189611904D01*
X106095238Y-189326190D01*
X106047619Y-189230952D01*
X106000000Y-189183333D01*
X105904761Y-189135714D01*
X105714285Y-189135714D01*
X105619047Y-189183333D01*
X104761904Y-189754761D02*
X104857142Y-189802380D01*
X105047619Y-189802380D01*
X105142857Y-189754761D01*
X105190476Y-189659523D01*
X105190476Y-189278571D01*
X105142857Y-189183333D01*
X105047619Y-189135714D01*
X104857142Y-189135714D01*
X104761904Y-189183333D01*
X104714285Y-189278571D01*
X104714285Y-189373809D01*
X105190476Y-189469047D01*
X104333333Y-189754761D02*
X104238095Y-189802380D01*
X104047619Y-189802380D01*
X103952380Y-189754761D01*
X103904761Y-189659523D01*
X103904761Y-189611904D01*
X103952380Y-189516666D01*
X104047619Y-189469047D01*
X104190476Y-189469047D01*
X104285714Y-189421428D01*
X104333333Y-189326190D01*
X104333333Y-189278571D01*
X104285714Y-189183333D01*
X104190476Y-189135714D01*
X104047619Y-189135714D01*
X103952380Y-189183333D01*
X103476190Y-189802380D02*
X103476190Y-189135714D01*
X103476190Y-188802380D02*
X103523809Y-188850000D01*
X103476190Y-188897619D01*
X103428571Y-188850000D01*
X103476190Y-188802380D01*
X103476190Y-188897619D01*
X102571428Y-189135714D02*
X102571428Y-189945238D01*
X102619047Y-190040476D01*
X102666666Y-190088095D01*
X102761904Y-190135714D01*
X102904761Y-190135714D01*
X103000000Y-190088095D01*
X102571428Y-189754761D02*
X102666666Y-189802380D01*
X102857142Y-189802380D01*
X102952380Y-189754761D01*
X103000000Y-189707142D01*
X103047619Y-189611904D01*
X103047619Y-189326190D01*
X103000000Y-189230952D01*
X102952380Y-189183333D01*
X102857142Y-189135714D01*
X102666666Y-189135714D01*
X102571428Y-189183333D01*
X102095238Y-189135714D02*
X102095238Y-189802380D01*
X102095238Y-189230952D02*
X102047619Y-189183333D01*
X101952380Y-189135714D01*
X101809523Y-189135714D01*
X101714285Y-189183333D01*
X101666666Y-189278571D01*
X101666666Y-189802380D01*
X100428571Y-189802380D02*
X100428571Y-188802380D01*
X100428571Y-189183333D02*
X100333333Y-189135714D01*
X100142857Y-189135714D01*
X100047619Y-189183333D01*
X100000000Y-189230952D01*
X99952380Y-189326190D01*
X99952380Y-189611904D01*
X100000000Y-189707142D01*
X100047619Y-189754761D01*
X100142857Y-189802380D01*
X100333333Y-189802380D01*
X100428571Y-189754761D01*
X99619047Y-189135714D02*
X99380952Y-189802380D01*
X99142857Y-189135714D02*
X99380952Y-189802380D01*
X99476190Y-190040476D01*
X99523809Y-190088095D01*
X99619047Y-190135714D01*
X97428571Y-189802380D02*
X97761904Y-189326190D01*
X98000000Y-189802380D02*
X98000000Y-188802380D01*
X97619047Y-188802380D01*
X97523809Y-188850000D01*
X97476190Y-188897619D01*
X97428571Y-188992857D01*
X97428571Y-189135714D01*
X97476190Y-189230952D01*
X97523809Y-189278571D01*
X97619047Y-189326190D01*
X98000000Y-189326190D01*
X97000000Y-189802380D02*
X97000000Y-189135714D01*
X97000000Y-188802380D02*
X97047619Y-188850000D01*
X97000000Y-188897619D01*
X96952380Y-188850000D01*
X97000000Y-188802380D01*
X97000000Y-188897619D01*
X96095238Y-189754761D02*
X96190476Y-189802380D01*
X96380952Y-189802380D01*
X96476190Y-189754761D01*
X96523809Y-189707142D01*
X96571428Y-189611904D01*
X96571428Y-189326190D01*
X96523809Y-189230952D01*
X96476190Y-189183333D01*
X96380952Y-189135714D01*
X96190476Y-189135714D01*
X96095238Y-189183333D01*
X95666666Y-189802380D02*
X95666666Y-188802380D01*
X95238095Y-189802380D02*
X95238095Y-189278571D01*
X95285714Y-189183333D01*
X95380952Y-189135714D01*
X95523809Y-189135714D01*
X95619047Y-189183333D01*
X95666666Y-189230952D01*
X94000000Y-189802380D02*
X94000000Y-188802380D01*
X94000000Y-189278571D02*
X93428571Y-189278571D01*
X93428571Y-189802380D02*
X93428571Y-188802380D01*
X92809523Y-189802380D02*
X92904761Y-189754761D01*
X92952380Y-189707142D01*
X93000000Y-189611904D01*
X93000000Y-189326190D01*
X92952380Y-189230952D01*
X92904761Y-189183333D01*
X92809523Y-189135714D01*
X92666666Y-189135714D01*
X92571428Y-189183333D01*
X92523809Y-189230952D01*
X92476190Y-189326190D01*
X92476190Y-189611904D01*
X92523809Y-189707142D01*
X92571428Y-189754761D01*
X92666666Y-189802380D01*
X92809523Y-189802380D01*
X91904761Y-189802380D02*
X92000000Y-189754761D01*
X92047619Y-189659523D01*
X92047619Y-188802380D01*
X91523809Y-189802380D02*
X91523809Y-189135714D01*
X91523809Y-189230952D02*
X91476190Y-189183333D01*
X91380952Y-189135714D01*
X91238095Y-189135714D01*
X91142857Y-189183333D01*
X91095238Y-189278571D01*
X91095238Y-189802380D01*
X91095238Y-189278571D02*
X91047619Y-189183333D01*
X90952380Y-189135714D01*
X90809523Y-189135714D01*
X90714285Y-189183333D01*
X90666666Y-189278571D01*
X90666666Y-189802380D01*
X89809523Y-189754761D02*
X89904761Y-189802380D01*
X90095238Y-189802380D01*
X90190476Y-189754761D01*
X90238095Y-189659523D01*
X90238095Y-189278571D01*
X90190476Y-189183333D01*
X90095238Y-189135714D01*
X89904761Y-189135714D01*
X89809523Y-189183333D01*
X89761904Y-189278571D01*
X89761904Y-189373809D01*
X90238095Y-189469047D01*
X89380952Y-189754761D02*
X89285714Y-189802380D01*
X89095238Y-189802380D01*
X89000000Y-189754761D01*
X88952380Y-189659523D01*
X88952380Y-189611904D01*
X89000000Y-189516666D01*
X89095238Y-189469047D01*
X89238095Y-189469047D01*
X89333333Y-189421428D01*
X89380952Y-189326190D01*
X89380952Y-189278571D01*
X89333333Y-189183333D01*
X89238095Y-189135714D01*
X89095238Y-189135714D01*
X89000000Y-189183333D01*
X104571428Y-191166666D02*
X104095238Y-191166666D01*
X104666666Y-191452380D02*
X104333333Y-190452380D01*
X104000000Y-191452380D01*
X103238095Y-190785714D02*
X103238095Y-191452380D01*
X103666666Y-190785714D02*
X103666666Y-191309523D01*
X103619047Y-191404761D01*
X103523809Y-191452380D01*
X103380952Y-191452380D01*
X103285714Y-191404761D01*
X103238095Y-191357142D01*
X102333333Y-190785714D02*
X102333333Y-191595238D01*
X102380952Y-191690476D01*
X102428571Y-191738095D01*
X102523809Y-191785714D01*
X102666666Y-191785714D01*
X102761904Y-191738095D01*
X102333333Y-191404761D02*
X102428571Y-191452380D01*
X102619047Y-191452380D01*
X102714285Y-191404761D01*
X102761904Y-191357142D01*
X102809523Y-191261904D01*
X102809523Y-190976190D01*
X102761904Y-190880952D01*
X102714285Y-190833333D01*
X102619047Y-190785714D01*
X102428571Y-190785714D01*
X102333333Y-190833333D01*
X101428571Y-190785714D02*
X101428571Y-191452380D01*
X101857142Y-190785714D02*
X101857142Y-191309523D01*
X101809523Y-191404761D01*
X101714285Y-191452380D01*
X101571428Y-191452380D01*
X101476190Y-191404761D01*
X101428571Y-191357142D01*
X101000000Y-191404761D02*
X100904761Y-191452380D01*
X100714285Y-191452380D01*
X100619047Y-191404761D01*
X100571428Y-191309523D01*
X100571428Y-191261904D01*
X100619047Y-191166666D01*
X100714285Y-191119047D01*
X100857142Y-191119047D01*
X100952380Y-191071428D01*
X101000000Y-190976190D01*
X101000000Y-190928571D01*
X100952380Y-190833333D01*
X100857142Y-190785714D01*
X100714285Y-190785714D01*
X100619047Y-190833333D01*
X100285714Y-190785714D02*
X99904761Y-190785714D01*
X100142857Y-190452380D02*
X100142857Y-191309523D01*
X100095238Y-191404761D01*
X100000000Y-191452380D01*
X99904761Y-191452380D01*
X98857142Y-190547619D02*
X98809523Y-190500000D01*
X98714285Y-190452380D01*
X98476190Y-190452380D01*
X98380952Y-190500000D01*
X98333333Y-190547619D01*
X98285714Y-190642857D01*
X98285714Y-190738095D01*
X98333333Y-190880952D01*
X98904761Y-191452380D01*
X98285714Y-191452380D01*
X97666666Y-190452380D02*
X97571428Y-190452380D01*
X97476190Y-190500000D01*
X97428571Y-190547619D01*
X97380952Y-190642857D01*
X97333333Y-190833333D01*
X97333333Y-191071428D01*
X97380952Y-191261904D01*
X97428571Y-191357142D01*
X97476190Y-191404761D01*
X97571428Y-191452380D01*
X97666666Y-191452380D01*
X97761904Y-191404761D01*
X97809523Y-191357142D01*
X97857142Y-191261904D01*
X97904761Y-191071428D01*
X97904761Y-190833333D01*
X97857142Y-190642857D01*
X97809523Y-190547619D01*
X97761904Y-190500000D01*
X97666666Y-190452380D01*
X96952380Y-190547619D02*
X96904761Y-190500000D01*
X96809523Y-190452380D01*
X96571428Y-190452380D01*
X96476190Y-190500000D01*
X96428571Y-190547619D01*
X96380952Y-190642857D01*
X96380952Y-190738095D01*
X96428571Y-190880952D01*
X97000000Y-191452380D01*
X96380952Y-191452380D01*
X95428571Y-191452380D02*
X96000000Y-191452380D01*
X95714285Y-191452380D02*
X95714285Y-190452380D01*
X95809523Y-190595238D01*
X95904761Y-190690476D01*
X96000000Y-190738095D01*
X100666666Y-193007142D02*
X100714285Y-193054761D01*
X100857142Y-193102380D01*
X100952380Y-193102380D01*
X101095238Y-193054761D01*
X101190476Y-192959523D01*
X101238095Y-192864285D01*
X101285714Y-192673809D01*
X101285714Y-192530952D01*
X101238095Y-192340476D01*
X101190476Y-192245238D01*
X101095238Y-192150000D01*
X100952380Y-192102380D01*
X100857142Y-192102380D01*
X100714285Y-192150000D01*
X100666666Y-192197619D01*
X99666666Y-193007142D02*
X99714285Y-193054761D01*
X99857142Y-193102380D01*
X99952380Y-193102380D01*
X100095238Y-193054761D01*
X100190476Y-192959523D01*
X100238095Y-192864285D01*
X100285714Y-192673809D01*
X100285714Y-192530952D01*
X100238095Y-192340476D01*
X100190476Y-192245238D01*
X100095238Y-192150000D01*
X99952380Y-192102380D01*
X99857142Y-192102380D01*
X99714285Y-192150000D01*
X99666666Y-192197619D01*
X99047619Y-192102380D02*
X98952380Y-192102380D01*
X98857142Y-192150000D01*
X98809523Y-192197619D01*
X98761904Y-192292857D01*
X98714285Y-192483333D01*
X98714285Y-192721428D01*
X98761904Y-192911904D01*
X98809523Y-193007142D01*
X98857142Y-193054761D01*
X98952380Y-193102380D01*
X99047619Y-193102380D01*
X99142857Y-193054761D01*
X99190476Y-193007142D01*
X99238095Y-192911904D01*
X99285714Y-192721428D01*
X99285714Y-192483333D01*
X99238095Y-192292857D01*
X99190476Y-192197619D01*
X99142857Y-192150000D01*
X99047619Y-192102380D01*
X104619047Y-194452380D02*
X104619047Y-195166666D01*
X104666666Y-195309523D01*
X104761904Y-195404761D01*
X104904761Y-195452380D01*
X105000000Y-195452380D01*
X103666666Y-195452380D02*
X104142857Y-195452380D01*
X104142857Y-194452380D01*
X102761904Y-195357142D02*
X102809523Y-195404761D01*
X102952380Y-195452380D01*
X103047619Y-195452380D01*
X103190476Y-195404761D01*
X103285714Y-195309523D01*
X103333333Y-195214285D01*
X103380952Y-195023809D01*
X103380952Y-194880952D01*
X103333333Y-194690476D01*
X103285714Y-194595238D01*
X103190476Y-194500000D01*
X103047619Y-194452380D01*
X102952380Y-194452380D01*
X102809523Y-194500000D01*
X102761904Y-194547619D01*
X102047619Y-194452380D02*
X102047619Y-195166666D01*
X102095238Y-195309523D01*
X102190476Y-195404761D01*
X102333333Y-195452380D01*
X102428571Y-195452380D01*
X101095238Y-195452380D02*
X101571428Y-195452380D01*
X101571428Y-194452380D01*
X100190476Y-195357142D02*
X100238095Y-195404761D01*
X100380952Y-195452380D01*
X100476190Y-195452380D01*
X100619047Y-195404761D01*
X100714285Y-195309523D01*
X100761904Y-195214285D01*
X100809523Y-195023809D01*
X100809523Y-194880952D01*
X100761904Y-194690476D01*
X100714285Y-194595238D01*
X100619047Y-194500000D01*
X100476190Y-194452380D01*
X100380952Y-194452380D01*
X100238095Y-194500000D01*
X100190476Y-194547619D01*
X99476190Y-194452380D02*
X99476190Y-195166666D01*
X99523809Y-195309523D01*
X99619047Y-195404761D01*
X99761904Y-195452380D01*
X99857142Y-195452380D01*
X98523809Y-195452380D02*
X99000000Y-195452380D01*
X99000000Y-194452380D01*
X97619047Y-195357142D02*
X97666666Y-195404761D01*
X97809523Y-195452380D01*
X97904761Y-195452380D01*
X98047619Y-195404761D01*
X98142857Y-195309523D01*
X98190476Y-195214285D01*
X98238095Y-195023809D01*
X98238095Y-194880952D01*
X98190476Y-194690476D01*
X98142857Y-194595238D01*
X98047619Y-194500000D01*
X97904761Y-194452380D01*
X97809523Y-194452380D01*
X97666666Y-194500000D01*
X97619047Y-194547619D01*
X96904761Y-194452380D02*
X96904761Y-195166666D01*
X96952380Y-195309523D01*
X97047619Y-195404761D01*
X97190476Y-195452380D01*
X97285714Y-195452380D01*
X95952380Y-195452380D02*
X96428571Y-195452380D01*
X96428571Y-194452380D01*
X95047619Y-195357142D02*
X95095238Y-195404761D01*
X95238095Y-195452380D01*
X95333333Y-195452380D01*
X95476190Y-195404761D01*
X95571428Y-195309523D01*
X95619047Y-195214285D01*
X95666666Y-195023809D01*
X95666666Y-194880952D01*
X95619047Y-194690476D01*
X95571428Y-194595238D01*
X95476190Y-194500000D01*
X95333333Y-194452380D01*
X95238095Y-194452380D01*
X95095238Y-194500000D01*
X95047619Y-194547619D01*
D11*
G36*
X92345762Y-191503295D02*
G01*
X92119275Y-191560725D01*
X91906042Y-191650861D01*
X91709636Y-191771823D01*
X91533628Y-191921729D01*
X91381589Y-192098696D01*
X91257089Y-192300844D01*
X91244249Y-192326541D01*
X91193712Y-192437295D01*
X91156951Y-192538132D01*
X91131999Y-192639067D01*
X91116892Y-192750114D01*
X91109665Y-192881287D01*
X91108257Y-193019538D01*
X91109141Y-193139418D01*
X91111786Y-193229550D01*
X91117274Y-193299255D01*
X91126685Y-193357855D01*
X91141101Y-193414672D01*
X91161488Y-193478692D01*
X91252320Y-193689619D01*
X91376092Y-193885212D01*
X91528345Y-194061404D01*
X91704617Y-194214128D01*
X91900450Y-194339317D01*
X92111382Y-194432904D01*
X92253751Y-194474692D01*
X92376333Y-194496312D01*
X92517661Y-194509844D01*
X92661804Y-194514540D01*
X92792831Y-194509650D01*
X92852036Y-194502835D01*
X93065147Y-194451615D01*
X93274960Y-194365903D01*
X93472932Y-194249928D01*
X93650519Y-194107922D01*
X93651575Y-194106935D01*
X93818861Y-193925473D01*
X93952401Y-193726943D01*
X94051194Y-193514250D01*
X94114239Y-193290302D01*
X94140535Y-193058003D01*
X94137084Y-192986371D01*
X93862601Y-192986371D01*
X93860389Y-193119780D01*
X93848612Y-193238052D01*
X93834995Y-193302846D01*
X93760380Y-193500843D01*
X93653427Y-193685299D01*
X93518836Y-193850554D01*
X93361307Y-193990947D01*
X93185539Y-194100816D01*
X93163640Y-194111586D01*
X93076119Y-194149895D01*
X92986608Y-194183320D01*
X92911196Y-194205990D01*
X92895231Y-194209527D01*
X92827822Y-194222939D01*
X92771304Y-194234585D01*
X92748692Y-194239505D01*
X92699174Y-194244004D01*
X92623233Y-194243264D01*
X92533045Y-194238131D01*
X92440787Y-194229448D01*
X92358637Y-194218062D01*
X92315852Y-194209472D01*
X92145852Y-194152534D01*
X91976986Y-194067240D01*
X91819642Y-193960299D01*
X91684202Y-193838415D01*
X91614407Y-193756457D01*
X91512259Y-193606814D01*
X91439983Y-193465157D01*
X91393839Y-193320154D01*
X91370085Y-193160468D01*
X91364724Y-193000000D01*
X91366764Y-192890885D01*
X91372805Y-192807322D01*
X91384761Y-192735844D01*
X91404547Y-192662980D01*
X91418866Y-192619187D01*
X91509318Y-192410739D01*
X91630477Y-192225634D01*
X91780224Y-192066010D01*
X91956439Y-191934010D01*
X92157005Y-191831773D01*
X92223114Y-191806696D01*
X92334844Y-191778184D01*
X92470736Y-191759903D01*
X92617025Y-191752684D01*
X92759944Y-191757356D01*
X92853669Y-191768657D01*
X93041649Y-191819565D01*
X93221627Y-191905315D01*
X93389038Y-192021826D01*
X93539315Y-192165015D01*
X93667892Y-192330800D01*
X93770203Y-192515098D01*
X93815676Y-192628769D01*
X93839862Y-192727521D01*
X93855631Y-192851170D01*
X93862601Y-192986371D01*
X94137084Y-192986371D01*
X94129080Y-192820259D01*
X94118648Y-192751252D01*
X94060541Y-192518286D01*
X93970059Y-192304919D01*
X93845439Y-192107891D01*
X93684913Y-191923940D01*
X93655132Y-191894885D01*
X93474249Y-191743935D01*
X93283837Y-191629231D01*
X93078478Y-191548158D01*
X92852752Y-191498104D01*
X92824219Y-191494081D01*
X92581934Y-191480453D01*
X92345762Y-191503295D01*
G37*
X92345762Y-191503295D02*
X92119275Y-191560725D01*
X91906042Y-191650861D01*
X91709636Y-191771823D01*
X91533628Y-191921729D01*
X91381589Y-192098696D01*
X91257089Y-192300844D01*
X91244249Y-192326541D01*
X91193712Y-192437295D01*
X91156951Y-192538132D01*
X91131999Y-192639067D01*
X91116892Y-192750114D01*
X91109665Y-192881287D01*
X91108257Y-193019538D01*
X91109141Y-193139418D01*
X91111786Y-193229550D01*
X91117274Y-193299255D01*
X91126685Y-193357855D01*
X91141101Y-193414672D01*
X91161488Y-193478692D01*
X91252320Y-193689619D01*
X91376092Y-193885212D01*
X91528345Y-194061404D01*
X91704617Y-194214128D01*
X91900450Y-194339317D01*
X92111382Y-194432904D01*
X92253751Y-194474692D01*
X92376333Y-194496312D01*
X92517661Y-194509844D01*
X92661804Y-194514540D01*
X92792831Y-194509650D01*
X92852036Y-194502835D01*
X93065147Y-194451615D01*
X93274960Y-194365903D01*
X93472932Y-194249928D01*
X93650519Y-194107922D01*
X93651575Y-194106935D01*
X93818861Y-193925473D01*
X93952401Y-193726943D01*
X94051194Y-193514250D01*
X94114239Y-193290302D01*
X94140535Y-193058003D01*
X94137084Y-192986371D01*
X93862601Y-192986371D01*
X93860389Y-193119780D01*
X93848612Y-193238052D01*
X93834995Y-193302846D01*
X93760380Y-193500843D01*
X93653427Y-193685299D01*
X93518836Y-193850554D01*
X93361307Y-193990947D01*
X93185539Y-194100816D01*
X93163640Y-194111586D01*
X93076119Y-194149895D01*
X92986608Y-194183320D01*
X92911196Y-194205990D01*
X92895231Y-194209527D01*
X92827822Y-194222939D01*
X92771304Y-194234585D01*
X92748692Y-194239505D01*
X92699174Y-194244004D01*
X92623233Y-194243264D01*
X92533045Y-194238131D01*
X92440787Y-194229448D01*
X92358637Y-194218062D01*
X92315852Y-194209472D01*
X92145852Y-194152534D01*
X91976986Y-194067240D01*
X91819642Y-193960299D01*
X91684202Y-193838415D01*
X91614407Y-193756457D01*
X91512259Y-193606814D01*
X91439983Y-193465157D01*
X91393839Y-193320154D01*
X91370085Y-193160468D01*
X91364724Y-193000000D01*
X91366764Y-192890885D01*
X91372805Y-192807322D01*
X91384761Y-192735844D01*
X91404547Y-192662980D01*
X91418866Y-192619187D01*
X91509318Y-192410739D01*
X91630477Y-192225634D01*
X91780224Y-192066010D01*
X91956439Y-191934010D01*
X92157005Y-191831773D01*
X92223114Y-191806696D01*
X92334844Y-191778184D01*
X92470736Y-191759903D01*
X92617025Y-191752684D01*
X92759944Y-191757356D01*
X92853669Y-191768657D01*
X93041649Y-191819565D01*
X93221627Y-191905315D01*
X93389038Y-192021826D01*
X93539315Y-192165015D01*
X93667892Y-192330800D01*
X93770203Y-192515098D01*
X93815676Y-192628769D01*
X93839862Y-192727521D01*
X93855631Y-192851170D01*
X93862601Y-192986371D01*
X94137084Y-192986371D01*
X94129080Y-192820259D01*
X94118648Y-192751252D01*
X94060541Y-192518286D01*
X93970059Y-192304919D01*
X93845439Y-192107891D01*
X93684913Y-191923940D01*
X93655132Y-191894885D01*
X93474249Y-191743935D01*
X93283837Y-191629231D01*
X93078478Y-191548158D01*
X92852752Y-191498104D01*
X92824219Y-191494081D01*
X92581934Y-191480453D01*
X92345762Y-191503295D01*
G36*
X89062551Y-191511587D02*
G01*
X88834872Y-191572319D01*
X88622761Y-191663945D01*
X88552602Y-191703708D01*
X88444068Y-191780779D01*
X88328792Y-191881493D01*
X88217359Y-191995134D01*
X88120353Y-192110982D01*
X88053888Y-192208692D01*
X87954077Y-192414999D01*
X87885850Y-192635241D01*
X87849306Y-192863459D01*
X87844543Y-193093698D01*
X87871660Y-193320000D01*
X87930753Y-193536409D01*
X88021923Y-193736967D01*
X88028497Y-193748509D01*
X88153060Y-193927855D01*
X88308404Y-194091903D01*
X88487535Y-194235367D01*
X88683462Y-194352963D01*
X88889193Y-194439403D01*
X88976363Y-194465024D01*
X89106088Y-194490687D01*
X89251603Y-194507309D01*
X89397718Y-194513928D01*
X89529245Y-194509587D01*
X89582701Y-194503333D01*
X89822036Y-194446757D01*
X90048814Y-194353934D01*
X90258665Y-194226800D01*
X90330318Y-194172122D01*
X90501565Y-194009450D01*
X90641960Y-193826151D01*
X90750979Y-193626239D01*
X90828098Y-193413730D01*
X90872791Y-193192639D01*
X90881016Y-193034606D01*
X90619198Y-193034606D01*
X90594064Y-193245751D01*
X90532679Y-193450690D01*
X90448267Y-193623249D01*
X90385076Y-193713441D01*
X90298995Y-193813314D01*
X90200572Y-193912322D01*
X90100350Y-193999920D01*
X90008876Y-194065561D01*
X90001557Y-194069958D01*
X89803936Y-194164254D01*
X89595157Y-194221992D01*
X89379243Y-194242623D01*
X89160214Y-194225598D01*
X89043253Y-194200863D01*
X88872303Y-194140458D01*
X88702582Y-194051041D01*
X88545288Y-193939843D01*
X88411618Y-193814097D01*
X88372085Y-193767478D01*
X88254299Y-193589023D01*
X88171467Y-193398686D01*
X88122905Y-193200620D01*
X88107932Y-192998975D01*
X88125863Y-192797904D01*
X88176017Y-192601558D01*
X88257710Y-192414089D01*
X88370259Y-192239647D01*
X88512983Y-192082385D01*
X88669918Y-191956741D01*
X88850595Y-191856346D01*
X89047052Y-191788856D01*
X89253455Y-191754622D01*
X89463972Y-191753993D01*
X89672769Y-191787319D01*
X89874013Y-191854950D01*
X89930339Y-191881134D01*
X90074147Y-191970458D01*
X90213615Y-192090242D01*
X90341458Y-192231978D01*
X90450390Y-192387160D01*
X90533123Y-192547282D01*
X90558456Y-192614411D01*
X90607517Y-192822433D01*
X90619198Y-193034606D01*
X90881016Y-193034606D01*
X90884536Y-192966982D01*
X90862808Y-192740772D01*
X90807082Y-192518025D01*
X90716833Y-192302756D01*
X90599584Y-192110151D01*
X90471384Y-191957078D01*
X90317123Y-191816554D01*
X90145551Y-191694696D01*
X89965418Y-191597626D01*
X89785476Y-191531460D01*
X89763914Y-191525788D01*
X89534579Y-191487219D01*
X89298289Y-191482853D01*
X89062551Y-191511587D01*
G37*
X89062551Y-191511587D02*
X88834872Y-191572319D01*
X88622761Y-191663945D01*
X88552602Y-191703708D01*
X88444068Y-191780779D01*
X88328792Y-191881493D01*
X88217359Y-191995134D01*
X88120353Y-192110982D01*
X88053888Y-192208692D01*
X87954077Y-192414999D01*
X87885850Y-192635241D01*
X87849306Y-192863459D01*
X87844543Y-193093698D01*
X87871660Y-193320000D01*
X87930753Y-193536409D01*
X88021923Y-193736967D01*
X88028497Y-193748509D01*
X88153060Y-193927855D01*
X88308404Y-194091903D01*
X88487535Y-194235367D01*
X88683462Y-194352963D01*
X88889193Y-194439403D01*
X88976363Y-194465024D01*
X89106088Y-194490687D01*
X89251603Y-194507309D01*
X89397718Y-194513928D01*
X89529245Y-194509587D01*
X89582701Y-194503333D01*
X89822036Y-194446757D01*
X90048814Y-194353934D01*
X90258665Y-194226800D01*
X90330318Y-194172122D01*
X90501565Y-194009450D01*
X90641960Y-193826151D01*
X90750979Y-193626239D01*
X90828098Y-193413730D01*
X90872791Y-193192639D01*
X90881016Y-193034606D01*
X90619198Y-193034606D01*
X90594064Y-193245751D01*
X90532679Y-193450690D01*
X90448267Y-193623249D01*
X90385076Y-193713441D01*
X90298995Y-193813314D01*
X90200572Y-193912322D01*
X90100350Y-193999920D01*
X90008876Y-194065561D01*
X90001557Y-194069958D01*
X89803936Y-194164254D01*
X89595157Y-194221992D01*
X89379243Y-194242623D01*
X89160214Y-194225598D01*
X89043253Y-194200863D01*
X88872303Y-194140458D01*
X88702582Y-194051041D01*
X88545288Y-193939843D01*
X88411618Y-193814097D01*
X88372085Y-193767478D01*
X88254299Y-193589023D01*
X88171467Y-193398686D01*
X88122905Y-193200620D01*
X88107932Y-192998975D01*
X88125863Y-192797904D01*
X88176017Y-192601558D01*
X88257710Y-192414089D01*
X88370259Y-192239647D01*
X88512983Y-192082385D01*
X88669918Y-191956741D01*
X88850595Y-191856346D01*
X89047052Y-191788856D01*
X89253455Y-191754622D01*
X89463972Y-191753993D01*
X89672769Y-191787319D01*
X89874013Y-191854950D01*
X89930339Y-191881134D01*
X90074147Y-191970458D01*
X90213615Y-192090242D01*
X90341458Y-192231978D01*
X90450390Y-192387160D01*
X90533123Y-192547282D01*
X90558456Y-192614411D01*
X90607517Y-192822433D01*
X90619198Y-193034606D01*
X90881016Y-193034606D01*
X90884536Y-192966982D01*
X90862808Y-192740772D01*
X90807082Y-192518025D01*
X90716833Y-192302756D01*
X90599584Y-192110151D01*
X90471384Y-191957078D01*
X90317123Y-191816554D01*
X90145551Y-191694696D01*
X89965418Y-191597626D01*
X89785476Y-191531460D01*
X89763914Y-191525788D01*
X89534579Y-191487219D01*
X89298289Y-191482853D01*
X89062551Y-191511587D01*
G36*
X92885462Y-192552643D02*
G01*
X92807960Y-192583771D01*
X92734173Y-192630000D01*
X92677964Y-192681844D01*
X92661191Y-192706135D01*
X92654405Y-192730461D01*
X92668257Y-192752581D01*
X92709064Y-192780299D01*
X92731679Y-192793211D01*
X92821809Y-192843585D01*
X92888507Y-192785023D01*
X92960737Y-192738519D01*
X93032889Y-192729439D01*
X93108372Y-192754847D01*
X93162338Y-192799575D01*
X93194410Y-192868778D01*
X93205949Y-192966390D01*
X93204160Y-193031687D01*
X93197588Y-193104710D01*
X93185977Y-193152001D01*
X93164231Y-193186901D01*
X93133179Y-193217499D01*
X93057933Y-193264544D01*
X92981404Y-193272549D01*
X92903904Y-193241518D01*
X92867775Y-193213928D01*
X92799883Y-193154317D01*
X92720557Y-193194786D01*
X92673096Y-193222496D01*
X92644755Y-193245796D01*
X92641231Y-193252736D01*
X92654834Y-193274078D01*
X92690081Y-193311448D01*
X92727998Y-193346592D01*
X92841914Y-193423137D01*
X92965441Y-193462801D01*
X93094244Y-193464942D01*
X93223988Y-193428916D01*
X93238695Y-193422334D01*
X93345027Y-193354034D01*
X93420464Y-193262318D01*
X93465242Y-193146736D01*
X93479597Y-193006835D01*
X93478269Y-192964501D01*
X93468911Y-192874717D01*
X93449251Y-192804936D01*
X93413931Y-192736398D01*
X93412411Y-192733898D01*
X93333280Y-192639869D01*
X93230981Y-192574047D01*
X93111332Y-192538433D01*
X92980151Y-192535030D01*
X92885462Y-192552643D01*
G37*
X92885462Y-192552643D02*
X92807960Y-192583771D01*
X92734173Y-192630000D01*
X92677964Y-192681844D01*
X92661191Y-192706135D01*
X92654405Y-192730461D01*
X92668257Y-192752581D01*
X92709064Y-192780299D01*
X92731679Y-192793211D01*
X92821809Y-192843585D01*
X92888507Y-192785023D01*
X92960737Y-192738519D01*
X93032889Y-192729439D01*
X93108372Y-192754847D01*
X93162338Y-192799575D01*
X93194410Y-192868778D01*
X93205949Y-192966390D01*
X93204160Y-193031687D01*
X93197588Y-193104710D01*
X93185977Y-193152001D01*
X93164231Y-193186901D01*
X93133179Y-193217499D01*
X93057933Y-193264544D01*
X92981404Y-193272549D01*
X92903904Y-193241518D01*
X92867775Y-193213928D01*
X92799883Y-193154317D01*
X92720557Y-193194786D01*
X92673096Y-193222496D01*
X92644755Y-193245796D01*
X92641231Y-193252736D01*
X92654834Y-193274078D01*
X92690081Y-193311448D01*
X92727998Y-193346592D01*
X92841914Y-193423137D01*
X92965441Y-193462801D01*
X93094244Y-193464942D01*
X93223988Y-193428916D01*
X93238695Y-193422334D01*
X93345027Y-193354034D01*
X93420464Y-193262318D01*
X93465242Y-193146736D01*
X93479597Y-193006835D01*
X93478269Y-192964501D01*
X93468911Y-192874717D01*
X93449251Y-192804936D01*
X93413931Y-192736398D01*
X93412411Y-192733898D01*
X93333280Y-192639869D01*
X93230981Y-192574047D01*
X93111332Y-192538433D01*
X92980151Y-192535030D01*
X92885462Y-192552643D01*
G36*
X92010240Y-192551947D02*
G01*
X91908378Y-192591970D01*
X91825953Y-192650711D01*
X91779557Y-192710874D01*
X91775227Y-192734377D01*
X91793686Y-192758572D01*
X91840859Y-192790489D01*
X91852388Y-192797323D01*
X91906758Y-192827060D01*
X91938765Y-192836991D01*
X91958361Y-192829280D01*
X91964922Y-192821783D01*
X92013678Y-192775036D01*
X92073913Y-192739854D01*
X92126890Y-192726461D01*
X92208245Y-192743534D01*
X92270310Y-192792865D01*
X92310986Y-192871618D01*
X92328177Y-192976958D01*
X92328616Y-192999038D01*
X92315565Y-193104520D01*
X92279697Y-193187197D01*
X92225937Y-193243996D01*
X92159213Y-193271845D01*
X92084451Y-193267673D01*
X92006578Y-193228406D01*
X91986663Y-193212275D01*
X91916888Y-193151013D01*
X91839444Y-193185935D01*
X91792090Y-193212301D01*
X91764706Y-193237249D01*
X91762000Y-193244709D01*
X91777365Y-193276272D01*
X91817095Y-193319399D01*
X91871639Y-193366241D01*
X91931448Y-193408947D01*
X91986973Y-193439670D01*
X92009070Y-193447792D01*
X92148419Y-193468493D01*
X92280352Y-193450937D01*
X92363723Y-193418395D01*
X92467214Y-193346141D01*
X92542881Y-193248191D01*
X92588536Y-193128345D01*
X92602154Y-193004694D01*
X92585124Y-192873486D01*
X92536905Y-192754228D01*
X92461800Y-192654078D01*
X92364117Y-192580196D01*
X92339475Y-192567928D01*
X92235087Y-192537553D01*
X92122242Y-192533017D01*
X92010240Y-192551947D01*
G37*
X92010240Y-192551947D02*
X91908378Y-192591970D01*
X91825953Y-192650711D01*
X91779557Y-192710874D01*
X91775227Y-192734377D01*
X91793686Y-192758572D01*
X91840859Y-192790489D01*
X91852388Y-192797323D01*
X91906758Y-192827060D01*
X91938765Y-192836991D01*
X91958361Y-192829280D01*
X91964922Y-192821783D01*
X92013678Y-192775036D01*
X92073913Y-192739854D01*
X92126890Y-192726461D01*
X92208245Y-192743534D01*
X92270310Y-192792865D01*
X92310986Y-192871618D01*
X92328177Y-192976958D01*
X92328616Y-192999038D01*
X92315565Y-193104520D01*
X92279697Y-193187197D01*
X92225937Y-193243996D01*
X92159213Y-193271845D01*
X92084451Y-193267673D01*
X92006578Y-193228406D01*
X91986663Y-193212275D01*
X91916888Y-193151013D01*
X91839444Y-193185935D01*
X91792090Y-193212301D01*
X91764706Y-193237249D01*
X91762000Y-193244709D01*
X91777365Y-193276272D01*
X91817095Y-193319399D01*
X91871639Y-193366241D01*
X91931448Y-193408947D01*
X91986973Y-193439670D01*
X92009070Y-193447792D01*
X92148419Y-193468493D01*
X92280352Y-193450937D01*
X92363723Y-193418395D01*
X92467214Y-193346141D01*
X92542881Y-193248191D01*
X92588536Y-193128345D01*
X92602154Y-193004694D01*
X92585124Y-192873486D01*
X92536905Y-192754228D01*
X92461800Y-192654078D01*
X92364117Y-192580196D01*
X92339475Y-192567928D01*
X92235087Y-192537553D01*
X92122242Y-192533017D01*
X92010240Y-192551947D01*
G36*
X89281189Y-192133741D02*
G01*
X89216567Y-192141437D01*
X89158500Y-192159197D01*
X89099562Y-192185884D01*
X88984604Y-192261996D01*
X88892347Y-192366970D01*
X88822002Y-192502151D01*
X88772779Y-192668883D01*
X88754570Y-192773464D01*
X88738268Y-192927178D01*
X88736482Y-193063482D01*
X88749484Y-193201356D01*
X88761779Y-193277732D01*
X88806600Y-193451964D01*
X88873289Y-193598191D01*
X88960509Y-193714342D01*
X89066924Y-193798346D01*
X89112792Y-193821706D01*
X89205941Y-193850276D01*
X89318276Y-193866619D01*
X89431329Y-193868967D01*
X89509283Y-193859705D01*
X89584600Y-193839781D01*
X89646195Y-193811095D01*
X89709094Y-193765485D01*
X89752785Y-193727434D01*
X89842941Y-193622255D01*
X89910807Y-193489080D01*
X89921390Y-193451694D01*
X89515077Y-193451694D01*
X89498366Y-193498731D01*
X89454685Y-193530658D01*
X89393708Y-193545931D01*
X89325111Y-193543004D01*
X89258571Y-193520334D01*
X89225245Y-193497962D01*
X89183099Y-193448793D01*
X89145795Y-193382909D01*
X89135151Y-193356308D01*
X89115890Y-193277223D01*
X89101250Y-193173359D01*
X89092197Y-193058843D01*
X89089697Y-192947802D01*
X89094716Y-192854362D01*
X89098892Y-192825889D01*
X89115027Y-192739702D01*
X89315052Y-193083738D01*
X89375656Y-193189104D01*
X89428881Y-193283798D01*
X89471760Y-193362368D01*
X89501331Y-193419360D01*
X89514629Y-193449321D01*
X89515077Y-193451694D01*
X89921390Y-193451694D01*
X89956836Y-193326483D01*
X89981480Y-193133041D01*
X89984805Y-193034984D01*
X89638146Y-193034984D01*
X89636185Y-193095716D01*
X89634167Y-193141666D01*
X89631418Y-193174212D01*
X89625578Y-193190645D01*
X89614288Y-193188254D01*
X89595189Y-193164330D01*
X89565921Y-193116164D01*
X89524124Y-193041045D01*
X89467438Y-192936263D01*
X89418921Y-192846196D01*
X89359859Y-192735619D01*
X89317835Y-192653656D01*
X89290655Y-192594906D01*
X89276125Y-192553967D01*
X89272053Y-192525434D01*
X89276246Y-192503908D01*
X89278145Y-192499389D01*
X89314080Y-192463197D01*
X89372173Y-192452645D01*
X89444564Y-192468352D01*
X89478683Y-192483617D01*
X89535785Y-192534136D01*
X89581276Y-192618397D01*
X89614163Y-192732535D01*
X89633451Y-192872686D01*
X89638146Y-193034984D01*
X89984805Y-193034984D01*
X89986238Y-192992731D01*
X89975312Y-192779678D01*
X89940721Y-192597138D01*
X89882214Y-192444339D01*
X89799538Y-192320506D01*
X89751492Y-192271396D01*
X89666009Y-192204584D01*
X89579519Y-192162242D01*
X89479434Y-192139819D01*
X89368539Y-192132925D01*
X89281189Y-192133741D01*
G37*
X89281189Y-192133741D02*
X89216567Y-192141437D01*
X89158500Y-192159197D01*
X89099562Y-192185884D01*
X88984604Y-192261996D01*
X88892347Y-192366970D01*
X88822002Y-192502151D01*
X88772779Y-192668883D01*
X88754570Y-192773464D01*
X88738268Y-192927178D01*
X88736482Y-193063482D01*
X88749484Y-193201356D01*
X88761779Y-193277732D01*
X88806600Y-193451964D01*
X88873289Y-193598191D01*
X88960509Y-193714342D01*
X89066924Y-193798346D01*
X89112792Y-193821706D01*
X89205941Y-193850276D01*
X89318276Y-193866619D01*
X89431329Y-193868967D01*
X89509283Y-193859705D01*
X89584600Y-193839781D01*
X89646195Y-193811095D01*
X89709094Y-193765485D01*
X89752785Y-193727434D01*
X89842941Y-193622255D01*
X89910807Y-193489080D01*
X89921390Y-193451694D01*
X89515077Y-193451694D01*
X89498366Y-193498731D01*
X89454685Y-193530658D01*
X89393708Y-193545931D01*
X89325111Y-193543004D01*
X89258571Y-193520334D01*
X89225245Y-193497962D01*
X89183099Y-193448793D01*
X89145795Y-193382909D01*
X89135151Y-193356308D01*
X89115890Y-193277223D01*
X89101250Y-193173359D01*
X89092197Y-193058843D01*
X89089697Y-192947802D01*
X89094716Y-192854362D01*
X89098892Y-192825889D01*
X89115027Y-192739702D01*
X89315052Y-193083738D01*
X89375656Y-193189104D01*
X89428881Y-193283798D01*
X89471760Y-193362368D01*
X89501331Y-193419360D01*
X89514629Y-193449321D01*
X89515077Y-193451694D01*
X89921390Y-193451694D01*
X89956836Y-193326483D01*
X89981480Y-193133041D01*
X89984805Y-193034984D01*
X89638146Y-193034984D01*
X89636185Y-193095716D01*
X89634167Y-193141666D01*
X89631418Y-193174212D01*
X89625578Y-193190645D01*
X89614288Y-193188254D01*
X89595189Y-193164330D01*
X89565921Y-193116164D01*
X89524124Y-193041045D01*
X89467438Y-192936263D01*
X89418921Y-192846196D01*
X89359859Y-192735619D01*
X89317835Y-192653656D01*
X89290655Y-192594906D01*
X89276125Y-192553967D01*
X89272053Y-192525434D01*
X89276246Y-192503908D01*
X89278145Y-192499389D01*
X89314080Y-192463197D01*
X89372173Y-192452645D01*
X89444564Y-192468352D01*
X89478683Y-192483617D01*
X89535785Y-192534136D01*
X89581276Y-192618397D01*
X89614163Y-192732535D01*
X89633451Y-192872686D01*
X89638146Y-193034984D01*
X89984805Y-193034984D01*
X89986238Y-192992731D01*
X89975312Y-192779678D01*
X89940721Y-192597138D01*
X89882214Y-192444339D01*
X89799538Y-192320506D01*
X89751492Y-192271396D01*
X89666009Y-192204584D01*
X89579519Y-192162242D01*
X89479434Y-192139819D01*
X89368539Y-192132925D01*
X89281189Y-192133741D01*
M02*
