G04 #@! TF.GenerationSoftware,KiCad,Pcbnew,5.1.10-88a1d61d58~90~ubuntu20.04.1*
G04 #@! TF.CreationDate,2021-09-22T19:39:52-04:00*
G04 #@! TF.ProjectId,ysFFB-panel,79734646-422d-4706-916e-656c2e6b6963,rev?*
G04 #@! TF.SameCoordinates,Original*
G04 #@! TF.FileFunction,Profile,NP*
%FSLAX46Y46*%
G04 Gerber Fmt 4.6, Leading zero omitted, Abs format (unit mm)*
G04 Created by KiCad (PCBNEW 5.1.10-88a1d61d58~90~ubuntu20.04.1) date 2021-09-22 19:39:52*
%MOMM*%
%LPD*%
G01*
G04 APERTURE LIST*
G04 #@! TA.AperFunction,Profile*
%ADD10C,0.100000*%
G04 #@! TD*
G04 APERTURE END LIST*
D10*
X93800000Y-54000000D02*
X93800000Y-120000000D01*
X190200000Y-120000000D02*
X190200000Y-54000000D01*
X191800000Y-54000000D02*
X191800000Y-120000000D01*
X191800000Y-120000000D02*
X190200000Y-120000000D01*
X190200000Y-54000000D02*
X191800000Y-54000000D01*
X176200000Y-54000000D02*
X177800000Y-54000000D01*
X176200000Y-120000000D02*
X176200000Y-54000000D01*
X177800000Y-120000000D02*
X176200000Y-120000000D01*
X177800000Y-54000000D02*
X177800000Y-120000000D01*
X162200000Y-120000000D02*
X162200000Y-54000000D01*
X163800000Y-120000000D02*
X162200000Y-120000000D01*
X162200000Y-54000000D02*
X163800000Y-54000000D01*
X163800000Y-54000000D02*
X163800000Y-120000000D01*
X148200000Y-54000000D02*
X149800000Y-54000000D01*
X148200000Y-120000000D02*
X148200000Y-54000000D01*
X149800000Y-120000000D02*
X148200000Y-120000000D01*
X149800000Y-54000000D02*
X149800000Y-120000000D01*
X134200000Y-54000000D02*
X135800000Y-54000000D01*
X134200000Y-120000000D02*
X134200000Y-54000000D01*
X135800000Y-54000000D02*
X135800000Y-120000000D01*
X135800000Y-120000000D02*
X134200000Y-120000000D01*
X120200000Y-120000000D02*
X120200000Y-54000000D01*
X121800000Y-54000000D02*
X121800000Y-120000000D01*
X121800000Y-120000000D02*
X120200000Y-120000000D01*
X120200000Y-54000000D02*
X121800000Y-54000000D01*
X106200000Y-120000000D02*
X106200000Y-54000000D01*
X107800000Y-54000000D02*
X107800000Y-120000000D01*
X106200000Y-54000000D02*
X107800000Y-54000000D01*
X107800000Y-120000000D02*
X106200000Y-120000000D01*
X92200000Y-120000000D02*
X92200000Y-54000000D01*
X93800000Y-120000000D02*
X92200000Y-120000000D01*
X92200000Y-54000000D02*
X93800000Y-54000000D01*
X78200000Y-54000000D02*
X79800000Y-54000000D01*
X79800000Y-54000000D02*
X79800000Y-120000000D01*
X78200000Y-120000000D02*
X78200000Y-54000000D01*
X79800000Y-120000000D02*
X78200000Y-120000000D01*
X65800000Y-120000000D02*
X64200000Y-120000000D01*
X64200000Y-54000000D02*
X65800000Y-54000000D01*
X64200000Y-120000000D02*
X64200000Y-54000000D01*
X65800000Y-54000000D02*
X65800000Y-120000000D01*
X51800000Y-120000000D02*
X50200000Y-120000000D01*
X51800000Y-54000000D02*
X51800000Y-120000000D01*
X50200000Y-120000000D02*
X50200000Y-54000000D01*
X50200000Y-54000000D02*
X51800000Y-54000000D01*
X37800000Y-54000000D02*
X37800000Y-120000000D01*
X36200000Y-120000000D02*
X36200000Y-54000000D01*
X36200000Y-54000000D02*
X37800000Y-54000000D01*
X37800000Y-120000000D02*
X36200000Y-120000000D01*
X22200000Y-54000000D02*
X23800000Y-54000000D01*
X22200000Y-120000000D02*
X22200000Y-54000000D01*
X23800000Y-54000000D02*
X23800000Y-120000000D01*
X23800000Y-120000000D02*
X22200000Y-120000000D01*
X8200000Y-120000000D02*
X8200000Y-54000000D01*
X9800000Y-120000000D02*
X8200000Y-120000000D01*
X9800000Y-54000000D02*
X9800000Y-120000000D01*
X8200000Y-54000000D02*
X9800000Y-54000000D01*
X200000000Y0D02*
X0Y0D01*
X200000000Y-200000000D02*
X200000000Y0D01*
X0Y-200000000D02*
X200000000Y-200000000D01*
X0Y0D02*
X0Y-200000000D01*
M02*
